<?xml version="1.0" encoding="UTF-8" standalone="no"?><svg xmlns="http://www.w3.org/2000/svg" xmlns:xlink="http://www.w3.org/1999/xlink" contentScriptType="application/ecmascript" contentStyleType="text/css" height="578.4px" preserveAspectRatio="none" style="width:967px;height:578px;" version="1.1" viewBox="0 0 967 578" width="967.8px" zoomAndPan="magnify"><defs><filter height="300%" id="f1g0wwzphecto7" width="300%" x="-1" y="-1"><feGaussianBlur result="blurOut" stdDeviation="1.2"/><feColorMatrix in="blurOut" result="blurOut2" type="matrix" values="0 0 0 0 0 0 0 0 0 0 0 0 0 0 0 0 0 0 .4 0"/><feOffset dx="2.4" dy="2.4" in="blurOut2" result="blurOut3"/><feBlend in="SourceGraphic" in2="blurOut3" mode="normal"/></filter></defs><g><text fill="#000000" font-family="sans-serif" font-size="10.8" lengthAdjust="spacingAndGlyphs" textLength="129" x="415.773" y="11.2113">Mastermind Controler View</text><!--MD5=[a60570e4b426f702ccbb0d459e3b9417]
cluster models--><polygon fill="#FFFFFF" filter="url(#f1g0wwzphecto7)" points="462.546,93.9844,496.746,93.9844,500.946,108.15,827.346,108.15,827.346,500.1844,462.546,500.1844,462.546,93.9844" style="stroke: #000000; stroke-width: 0.8999999999999999;"/><line style="stroke: #000000; stroke-width: 0.8999999999999999;" x1="462.546" x2="500.946" y1="108.15" y2="108.15"/><text fill="#000000" font-family="sans-serif" font-size="8.4" font-weight="bold" lengthAdjust="spacingAndGlyphs" textLength="30.6" x="464.946" y="103.9043">models</text><!--MD5=[3d2289c64ab922d4a1148c2b2950c1a6]
cluster views.console--><polygon fill="#FFFFFF" filter="url(#f1g0wwzphecto7)" points="65.946,106.5844,130.146,106.5844,134.346,120.75,418.146,120.75,418.146,479.1844,65.946,479.1844,65.946,106.5844" style="stroke: #000000; stroke-width: 0.8999999999999999;"/><line style="stroke: #000000; stroke-width: 0.8999999999999999;" x1="65.946" x2="134.346" y1="120.75" y2="120.75"/><text fill="#000000" font-family="sans-serif" font-size="8.4" font-weight="bold" lengthAdjust="spacingAndGlyphs" textLength="60.6" x="68.346" y="116.5043">views.console</text><!--MD5=[5c7f87173935b24fa84626a0ac4e4222]
cluster views.graphic--><polygon fill="#FFFFFF" filter="url(#f1g0wwzphecto7)" points="841.746,106.5844,904.146,106.5844,908.346,120.75,958.146,120.75,958.146,207.9844,841.746,207.9844,841.746,106.5844" style="stroke: #000000; stroke-width: 0.8999999999999999;"/><line style="stroke: #000000; stroke-width: 0.8999999999999999;" x1="841.746" x2="908.346" y1="120.75" y2="120.75"/><text fill="#000000" font-family="sans-serif" font-size="8.4" font-weight="bold" lengthAdjust="spacingAndGlyphs" textLength="58.8" x="844.146" y="116.5043">views.graphic</text><!--MD5=[c52f45833d539af9e29a9d34b8b7302b]
cluster utils--><polygon fill="#FFFFFF" filter="url(#f1g0wwzphecto7)" points="52.746,514.5844,74.346,514.5844,78.546,528.75,182.946,528.75,182.946,574.5844,52.746,574.5844,52.746,514.5844" style="stroke: #000000; stroke-width: 0.8999999999999999;"/><line style="stroke: #000000; stroke-width: 0.8999999999999999;" x1="52.746" x2="78.546" y1="528.75" y2="528.75"/><text fill="#000000" font-family="sans-serif" font-size="8.4" font-weight="bold" lengthAdjust="spacingAndGlyphs" textLength="18" x="55.146" y="524.5043">utils</text><!--MD5=[1ea5cf3e691bb3552ec8d5f9a56af156]
class models.Game--><rect codeLine="83" fill="#FEFECE" filter="url(#f1g0wwzphecto7)" height="95.2125" id="models.Game" style="stroke: #A80036; stroke-width: 0.8999999999999999;" width="91.8" x="710.046" y="115.5844"/><ellipse cx="743.196" cy="125.1844" fill="#ADD1B2" rx="6.6" ry="6.6" style="stroke: #A80036; stroke-width: 0.6;"/><path d="M744.396,123.0844 Q744.5179,122.7844 744.6585,122.6344 Q744.7991,122.4844 744.9585,122.4844 Q745.2397,122.4844 745.4179,122.6531 Q745.596,122.8219 745.596,123.2156 L745.596,124.1531 Q745.596,124.5469 745.4272,124.7156 Q745.2585,124.8844 744.996,124.8844 Q744.7616,124.8844 744.6116,124.7813 Q744.4616,124.6781 744.396,124.4063 Q744.3679,124.2188 744.2647,124.1156 Q744.0772,123.9187 743.7397,123.8062 Q743.4022,123.6844 743.0647,123.6844 Q742.6429,123.6844 742.2866,123.8531 Q741.9397,124.0219 741.6679,124.3969 Q741.396,124.7719 741.396,125.2875 L741.396,125.8406 Q741.396,126.4594 741.9022,126.8719 Q742.4085,127.2844 743.3085,127.2844 Q743.8429,127.2844 744.2179,127.1625 Q744.4335,127.0969 744.6772,126.8813 Q744.8366,126.7594 744.921,126.7219 Q745.0054,126.6844 745.1085,126.6844 Q745.3054,126.6844 745.446,126.8438 Q745.596,126.9937 745.596,127.2094 Q745.596,127.4156 745.3897,127.6594 Q745.0897,128.0156 744.6116,128.2125 Q743.9835,128.4844 743.2147,128.4844 Q742.3147,128.4844 741.5929,128.1281 Q741.0116,127.8469 740.5991,127.2375 Q740.196,126.6281 740.196,125.9063 L740.196,125.25 Q740.196,124.5 740.5522,123.8438 Q740.9179,123.1875 741.546,122.8406 Q742.1835,122.4844 742.896,122.4844 Q743.3272,122.4844 743.7022,122.6344 Q744.0772,122.7844 744.396,123.0844 Z " fill="#000000"/><text fill="#000000" font-family="sans-serif" font-size="7.2" lengthAdjust="spacingAndGlyphs" textLength="20.4" x="755.496" y="128.1305">Game</text><line style="stroke: #A80036; stroke-width: 0.8999999999999999;" x1="710.646" x2="801.246" y1="134.7844" y2="134.7844"/><rect fill="none" height="3.6" style="stroke: #C82930; stroke-width: 0.6;" width="3.6" x="714.846" y="139.5844"/><text fill="#000000" font-family="sans-serif" font-size="6.6" lengthAdjust="spacingAndGlyphs" textLength="76.2" x="722.046" y="144.0357">attemptList : List&lt;Attempt&gt;</text><ellipse cx="716.646" cy="149.6859" fill="none" rx="1.8" ry="1.8" style="stroke: #038048; stroke-width: 0.6;"/><text fill="#000000" font-family="sans-serif" font-size="6.6" lengthAdjust="spacingAndGlyphs" textLength="50.4" x="722.046" y="152.3373">addAttempt : void</text><ellipse cx="716.646" cy="157.9875" fill="none" rx="1.8" ry="1.8" style="stroke: #038048; stroke-width: 0.6;"/><text fill="#000000" font-family="sans-serif" font-size="6.6" lengthAdjust="spacingAndGlyphs" textLength="66.6" x="722.046" y="160.6389">getNumOfAttempts : int</text><ellipse cx="716.646" cy="166.2891" fill="none" rx="1.8" ry="1.8" style="stroke: #038048; stroke-width: 0.6;"/><text fill="#000000" font-family="sans-serif" font-size="6.6" lengthAdjust="spacingAndGlyphs" textLength="66" x="722.046" y="168.9404">getAttemptListSize : int</text><ellipse cx="716.646" cy="174.5906" fill="none" rx="1.8" ry="1.8" style="stroke: #038048; stroke-width: 0.6;"/><text fill="#000000" font-family="sans-serif" font-size="6.6" lengthAdjust="spacingAndGlyphs" textLength="57" x="722.046" y="177.242">isFinished : boolean</text><ellipse cx="716.646" cy="182.8922" fill="none" rx="1.8" ry="1.8" style="stroke: #038048; stroke-width: 0.6;"/><text fill="#000000" font-family="sans-serif" font-size="6.6" lengthAdjust="spacingAndGlyphs" textLength="53.4" x="722.046" y="185.5436">isWinner : boolean</text><ellipse cx="716.646" cy="191.1938" fill="none" rx="1.8" ry="1.8" style="stroke: #038048; stroke-width: 0.6;"/><text fill="#000000" font-family="sans-serif" font-size="6.6" lengthAdjust="spacingAndGlyphs" textLength="53.4" x="722.046" y="193.8451">isLooser : boolean</text><ellipse cx="716.646" cy="199.4953" fill="none" rx="1.8" ry="1.8" style="stroke: #038048; stroke-width: 0.6;"/><text fill="#000000" font-family="sans-serif" font-size="6.6" lengthAdjust="spacingAndGlyphs" textLength="64.8" x="722.046" y="202.1467">resetAttemptList : void</text><line style="stroke: #A80036; stroke-width: 0.8999999999999999;" x1="710.646" x2="801.246" y1="205.9969" y2="205.9969"/><!--MD5=[58499357d4445bcc3ecc978ad55497c9]
class models.Color--><rect codeLine="72" fill="#FEFECE" filter="url(#f1g0wwzphecto7)" height="103.5141" id="models.Color" style="stroke: #A80036; stroke-width: 0.8999999999999999;" width="126" x="472.146" y="386.7844"/><ellipse cx="523.596" cy="396.3844" fill="#EB937F" rx="6.6" ry="6.6" style="stroke: #A80036; stroke-width: 0.6;"/><path d="M522.696,396.9844 L522.696,398.1844 L525.096,398.1844 L525.096,397.5844 L525.096,397.2938 L525.471,396.9844 L525.696,396.9844 L525.921,396.9844 L526.296,397.2938 L526.296,397.5844 L526.296,399.3844 L521.496,399.3844 L521.2054,399.3844 L520.896,399.0094 L520.896,398.7844 L520.896,398.5594 L521.2054,398.1844 L521.496,398.1844 L521.496,398.1844 L521.496,394.5844 L521.496,394.5844 L521.2054,394.5844 L520.896,394.2094 L520.896,393.9844 L520.896,393.7594 L521.2054,393.3844 L521.496,393.3844 L526.296,393.3844 L526.296,395.1844 L526.296,395.475 L525.921,395.7844 L525.696,395.7844 L525.471,395.7844 L525.096,395.475 L525.096,395.1844 L525.096,394.5844 L522.696,394.5844 L522.696,395.7844 L523.296,395.7844 L523.296,395.4938 L523.296,395.4938 L523.671,395.1844 L523.896,395.1844 L524.121,395.1844 L524.496,395.4938 L524.496,395.7844 L524.496,396.9844 L524.496,397.275 L524.121,397.5844 L524.121,397.5844 L523.896,397.5844 L523.671,397.5844 L523.296,397.275 L523.296,397.275 L523.296,396.9844 L522.696,396.9844 Z " fill="#000000"/><text fill="#000000" font-family="sans-serif" font-size="7.2" lengthAdjust="spacingAndGlyphs" textLength="18" x="535.896" y="399.3305">Color</text><line style="stroke: #A80036; stroke-width: 0.8999999999999999;" x1="472.746" x2="597.546" y1="405.9844" y2="405.9844"/><text fill="#000000" font-family="sans-serif" font-size="6.6" lengthAdjust="spacingAndGlyphs" textLength="12" x="475.746" y="415.2357">RED</text><text fill="#000000" font-family="sans-serif" font-size="6.6" lengthAdjust="spacingAndGlyphs" textLength="15.6" x="475.746" y="423.5373">BLUE</text><text fill="#000000" font-family="sans-serif" font-size="6.6" lengthAdjust="spacingAndGlyphs" textLength="26.4" x="475.746" y="431.8389">YELLOW</text><text fill="#000000" font-family="sans-serif" font-size="6.6" lengthAdjust="spacingAndGlyphs" textLength="26.4" x="475.746" y="440.1404">ORANGE</text><text fill="#000000" font-family="sans-serif" font-size="6.6" lengthAdjust="spacingAndGlyphs" textLength="13.2" x="475.746" y="448.442">PINK</text><text fill="#000000" font-family="sans-serif" font-size="6.6" lengthAdjust="spacingAndGlyphs" textLength="20.4" x="475.746" y="456.7436">GREEN</text><line style="stroke: #A80036; stroke-width: 0.8999999999999999;" x1="472.746" x2="597.546" y1="460.5938" y2="460.5938"/><ellipse cx="478.746" cy="467.1937" fill="#84BE84" rx="1.8" ry="1.8" style="stroke: #038048; stroke-width: 0.6;"/><text fill="#000000" font-family="sans-serif" font-size="6.6" lengthAdjust="spacingAndGlyphs" textLength="42.6" x="484.146" y="469.8451">toChar() : char</text><ellipse cx="478.746" cy="475.4953" fill="#84BE84" rx="1.8" ry="1.8" style="stroke: #038048; stroke-width: 0.6;"/><text fill="#000000" font-family="sans-serif" font-size="6.6" lengthAdjust="spacingAndGlyphs" text-decoration="underline" textLength="91.2" x="484.146" y="478.1467">valueOf(char character) : Color</text><ellipse cx="478.746" cy="483.7969" fill="#84BE84" rx="1.8" ry="1.8" style="stroke: #038048; stroke-width: 0.6;"/><text fill="#000000" font-family="sans-serif" font-size="6.6" lengthAdjust="spacingAndGlyphs" text-decoration="underline" textLength="110.4" x="484.146" y="486.4482">isValidColor(char character) : boolean</text><!--MD5=[54d08704be622b91252e030e0f93b574]
class models.Attempt--><rect fill="#FEFECE" filter="url(#f1g0wwzphecto7)" height="28.8" id="models.Attempt" style="stroke: #A80036; stroke-width: 0.8999999999999999;" width="43.8" x="734.046" y="284.4844"/><ellipse cx="743.046" cy="294.0844" fill="#ADD1B2" rx="6.6" ry="6.6" style="stroke: #A80036; stroke-width: 0.6;"/><path d="M744.246,291.9844 Q744.3679,291.6844 744.5085,291.5344 Q744.6491,291.3844 744.8085,291.3844 Q745.0897,291.3844 745.2679,291.5531 Q745.446,291.7219 745.446,292.1156 L745.446,293.0531 Q745.446,293.4469 745.2772,293.6156 Q745.1085,293.7844 744.846,293.7844 Q744.6116,293.7844 744.4616,293.6813 Q744.3116,293.5781 744.246,293.3063 Q744.2179,293.1188 744.1147,293.0156 Q743.9272,292.8187 743.5897,292.7063 Q743.2522,292.5844 742.9147,292.5844 Q742.4929,292.5844 742.1366,292.7531 Q741.7897,292.9219 741.5179,293.2969 Q741.246,293.6719 741.246,294.1875 L741.246,294.7406 Q741.246,295.3594 741.7522,295.7719 Q742.2585,296.1844 743.1585,296.1844 Q743.6929,296.1844 744.0679,296.0625 Q744.2835,295.9969 744.5272,295.7813 Q744.6866,295.6594 744.771,295.6219 Q744.8554,295.5844 744.9585,295.5844 Q745.1554,295.5844 745.296,295.7438 Q745.446,295.8938 745.446,296.1094 Q745.446,296.3156 745.2397,296.5594 Q744.9397,296.9156 744.4616,297.1125 Q743.8335,297.3844 743.0647,297.3844 Q742.1647,297.3844 741.4429,297.0281 Q740.8616,296.7469 740.4491,296.1375 Q740.046,295.5281 740.046,294.8063 L740.046,294.15 Q740.046,293.4 740.4022,292.7438 Q740.7679,292.0875 741.396,291.7406 Q742.0335,291.3844 742.746,291.3844 Q743.1772,291.3844 743.5522,291.5344 Q743.9272,291.6844 744.246,291.9844 Z " fill="#000000"/><text fill="#000000" font-family="sans-serif" font-size="7.2" lengthAdjust="spacingAndGlyphs" textLength="24.6" x="751.446" y="297.0305">Attempt</text><line style="stroke: #A80036; stroke-width: 0.8999999999999999;" x1="734.646" x2="777.246" y1="303.6844" y2="303.6844"/><line style="stroke: #A80036; stroke-width: 0.8999999999999999;" x1="734.646" x2="777.246" y1="308.4844" y2="308.4844"/><!--MD5=[9d437554863e80ad96398a79d9b4582d]
class models.ProposedCombination--><rect fill="#FEFECE" filter="url(#f1g0wwzphecto7)" height="28.8" id="models.ProposedCombination" style="stroke: #A80036; stroke-width: 0.8999999999999999;" width="94.2" x="619.446" y="424.2844"/><ellipse cx="628.446" cy="433.8844" fill="#ADD1B2" rx="6.6" ry="6.6" style="stroke: #A80036; stroke-width: 0.6;"/><path d="M629.646,431.7844 Q629.7679,431.4844 629.9085,431.3344 Q630.0491,431.1844 630.2085,431.1844 Q630.4897,431.1844 630.6679,431.3531 Q630.846,431.5219 630.846,431.9156 L630.846,432.8531 Q630.846,433.2469 630.6772,433.4156 Q630.5085,433.5844 630.246,433.5844 Q630.0116,433.5844 629.8616,433.4813 Q629.7116,433.3781 629.646,433.1063 Q629.6179,432.9188 629.5147,432.8156 Q629.3272,432.6188 628.9897,432.5062 Q628.6522,432.3844 628.3147,432.3844 Q627.8929,432.3844 627.5366,432.5531 Q627.1897,432.7219 626.9179,433.0969 Q626.646,433.4719 626.646,433.9875 L626.646,434.5406 Q626.646,435.1594 627.1522,435.5719 Q627.6585,435.9844 628.5585,435.9844 Q629.0929,435.9844 629.4679,435.8625 Q629.6835,435.7969 629.9272,435.5813 Q630.0866,435.4594 630.171,435.4219 Q630.2554,435.3844 630.3585,435.3844 Q630.5554,435.3844 630.696,435.5438 Q630.846,435.6937 630.846,435.9094 Q630.846,436.1156 630.6397,436.3594 Q630.3397,436.7156 629.8616,436.9125 Q629.2335,437.1844 628.4647,437.1844 Q627.5647,437.1844 626.8429,436.8281 Q626.2616,436.5469 625.8491,435.9375 Q625.446,435.3281 625.446,434.6063 L625.446,433.95 Q625.446,433.2 625.8022,432.5438 Q626.1679,431.8875 626.796,431.5406 Q627.4335,431.1844 628.146,431.1844 Q628.5772,431.1844 628.9522,431.3344 Q629.3272,431.4844 629.646,431.7844 Z " fill="#000000"/><text fill="#000000" font-family="sans-serif" font-size="7.2" lengthAdjust="spacingAndGlyphs" textLength="75" x="636.846" y="436.8305">ProposedCombination</text><line style="stroke: #A80036; stroke-width: 0.8999999999999999;" x1="620.046" x2="713.046" y1="443.4844" y2="443.4844"/><line style="stroke: #A80036; stroke-width: 0.8999999999999999;" x1="620.046" x2="713.046" y1="448.2844" y2="448.2844"/><!--MD5=[b89ed330bc8394929f0ad94fa56293db]
class models.SecretCombination--><rect fill="#FEFECE" filter="url(#f1g0wwzphecto7)" height="28.8" id="models.SecretCombination" style="stroke: #A80036; stroke-width: 0.8999999999999999;" width="82.8" x="734.946" y="424.2844"/><ellipse cx="743.946" cy="433.8844" fill="#ADD1B2" rx="6.6" ry="6.6" style="stroke: #A80036; stroke-width: 0.6;"/><path d="M745.146,431.7844 Q745.2679,431.4844 745.4085,431.3344 Q745.5491,431.1844 745.7085,431.1844 Q745.9897,431.1844 746.1679,431.3531 Q746.346,431.5219 746.346,431.9156 L746.346,432.8531 Q746.346,433.2469 746.1772,433.4156 Q746.0085,433.5844 745.746,433.5844 Q745.5116,433.5844 745.3616,433.4813 Q745.2116,433.3781 745.146,433.1063 Q745.1179,432.9188 745.0147,432.8156 Q744.8272,432.6188 744.4897,432.5062 Q744.1522,432.3844 743.8147,432.3844 Q743.3929,432.3844 743.0366,432.5531 Q742.6897,432.7219 742.4179,433.0969 Q742.146,433.4719 742.146,433.9875 L742.146,434.5406 Q742.146,435.1594 742.6522,435.5719 Q743.1585,435.9844 744.0585,435.9844 Q744.5929,435.9844 744.9679,435.8625 Q745.1835,435.7969 745.4272,435.5813 Q745.5866,435.4594 745.671,435.4219 Q745.7554,435.3844 745.8585,435.3844 Q746.0554,435.3844 746.196,435.5438 Q746.346,435.6937 746.346,435.9094 Q746.346,436.1156 746.1397,436.3594 Q745.8397,436.7156 745.3616,436.9125 Q744.7335,437.1844 743.9647,437.1844 Q743.0647,437.1844 742.3429,436.8281 Q741.7616,436.5469 741.3491,435.9375 Q740.946,435.3281 740.946,434.6063 L740.946,433.95 Q740.946,433.2 741.3022,432.5438 Q741.6679,431.8875 742.296,431.5406 Q742.9335,431.1844 743.646,431.1844 Q744.0772,431.1844 744.4522,431.3344 Q744.8272,431.4844 745.146,431.7844 Z " fill="#000000"/><text fill="#000000" font-family="sans-serif" font-size="7.2" lengthAdjust="spacingAndGlyphs" textLength="63.6" x="752.346" y="436.8305">SecretCombination</text><line style="stroke: #A80036; stroke-width: 0.8999999999999999;" x1="735.546" x2="817.146" y1="443.4844" y2="443.4844"/><line style="stroke: #A80036; stroke-width: 0.8999999999999999;" x1="735.546" x2="817.146" y1="448.2844" y2="448.2844"/><!--MD5=[3ab7dea9c5f32da8266d9170b1b41dc7]
class models.Combination--><rect fill="#FEFECE" filter="url(#f1g0wwzphecto7)" height="28.8" id="models.Combination" style="stroke: #A80036; stroke-width: 0.8999999999999999;" width="61.8" x="635.646" y="284.4844"/><ellipse cx="644.646" cy="294.0844" fill="#ADD1B2" rx="6.6" ry="6.6" style="stroke: #A80036; stroke-width: 0.6;"/><path d="M645.846,291.9844 Q645.9679,291.6844 646.1085,291.5344 Q646.2491,291.3844 646.4085,291.3844 Q646.6897,291.3844 646.8679,291.5531 Q647.046,291.7219 647.046,292.1156 L647.046,293.0531 Q647.046,293.4469 646.8772,293.6156 Q646.7085,293.7844 646.446,293.7844 Q646.2116,293.7844 646.0616,293.6813 Q645.9116,293.5781 645.846,293.3063 Q645.8179,293.1188 645.7147,293.0156 Q645.5272,292.8187 645.1897,292.7063 Q644.8522,292.5844 644.5147,292.5844 Q644.0929,292.5844 643.7366,292.7531 Q643.3897,292.9219 643.1179,293.2969 Q642.846,293.6719 642.846,294.1875 L642.846,294.7406 Q642.846,295.3594 643.3522,295.7719 Q643.8585,296.1844 644.7585,296.1844 Q645.2929,296.1844 645.6679,296.0625 Q645.8835,295.9969 646.1272,295.7813 Q646.2866,295.6594 646.371,295.6219 Q646.4554,295.5844 646.5585,295.5844 Q646.7554,295.5844 646.896,295.7438 Q647.046,295.8938 647.046,296.1094 Q647.046,296.3156 646.8397,296.5594 Q646.5397,296.9156 646.0616,297.1125 Q645.4335,297.3844 644.6647,297.3844 Q643.7647,297.3844 643.0429,297.0281 Q642.4616,296.7469 642.0491,296.1375 Q641.646,295.5281 641.646,294.8063 L641.646,294.15 Q641.646,293.4 642.0022,292.7438 Q642.3679,292.0875 642.996,291.7406 Q643.6335,291.3844 644.346,291.3844 Q644.7772,291.3844 645.1522,291.5344 Q645.5272,291.6844 645.846,291.9844 Z " fill="#000000"/><text fill="#000000" font-family="sans-serif" font-size="7.2" lengthAdjust="spacingAndGlyphs" textLength="42.6" x="653.046" y="297.0305">Combination</text><line style="stroke: #A80036; stroke-width: 0.8999999999999999;" x1="636.246" x2="696.846" y1="303.6844" y2="303.6844"/><line style="stroke: #A80036; stroke-width: 0.8999999999999999;" x1="636.246" x2="696.846" y1="308.4844" y2="308.4844"/><!--MD5=[87c6da2cef8aef96d064630939ddcd88]
class views.console.View--><rect codeLine="32" fill="#FEFECE" filter="url(#f1g0wwzphecto7)" height="70.3078" id="views.console.View" style="stroke: #A80036; stroke-width: 0.8999999999999999;" width="97.2" x="271.746" y="128.1844"/><ellipse cx="309.996" cy="137.7844" fill="#ADD1B2" rx="6.6" ry="6.6" style="stroke: #A80036; stroke-width: 0.6;"/><path d="M311.196,135.6844 Q311.3179,135.3844 311.4585,135.2344 Q311.5991,135.0844 311.7585,135.0844 Q312.0398,135.0844 312.2179,135.2531 Q312.396,135.4219 312.396,135.8156 L312.396,136.7531 Q312.396,137.1469 312.2273,137.3156 Q312.0585,137.4844 311.796,137.4844 Q311.5616,137.4844 311.4116,137.3813 Q311.2616,137.2781 311.196,137.0063 Q311.1679,136.8188 311.0648,136.7156 Q310.8773,136.5187 310.5398,136.4063 Q310.2023,136.2844 309.8648,136.2844 Q309.4429,136.2844 309.0866,136.4531 Q308.7398,136.6219 308.4679,136.9969 Q308.196,137.3719 308.196,137.8875 L308.196,138.4406 Q308.196,139.0594 308.7023,139.4719 Q309.2085,139.8844 310.1085,139.8844 Q310.6429,139.8844 311.0179,139.7625 Q311.2335,139.6969 311.4773,139.4813 Q311.6366,139.3594 311.721,139.3219 Q311.8054,139.2844 311.9085,139.2844 Q312.1054,139.2844 312.246,139.4438 Q312.396,139.5938 312.396,139.8094 Q312.396,140.0156 312.1898,140.2594 Q311.8898,140.6156 311.4116,140.8125 Q310.7835,141.0844 310.0148,141.0844 Q309.1148,141.0844 308.3929,140.7281 Q307.8116,140.4469 307.3991,139.8375 Q306.996,139.2281 306.996,138.5063 L306.996,137.85 Q306.996,137.1 307.3523,136.4438 Q307.7179,135.7875 308.346,135.4406 Q308.9835,135.0844 309.696,135.0844 Q310.1273,135.0844 310.5023,135.2344 Q310.8773,135.3844 311.196,135.6844 Z " fill="#000000"/><text fill="#000000" font-family="sans-serif" font-size="7.2" lengthAdjust="spacingAndGlyphs" textLength="15.6" x="322.296" y="140.7305">View</text><line style="stroke: #A80036; stroke-width: 0.8999999999999999;" x1="272.346" x2="368.346" y1="147.3844" y2="147.3844"/><rect fill="none" height="3.6" style="stroke: #C82930; stroke-width: 0.6;" width="3.6" x="276.546" y="152.1844"/><text fill="#000000" font-family="sans-serif" font-size="6.6" lengthAdjust="spacingAndGlyphs" textLength="69" x="283.746" y="156.6357">gameView : GameView</text><rect fill="none" height="3.6" style="stroke: #C82930; stroke-width: 0.6;" width="3.6" x="276.546" y="160.4859"/><text fill="#000000" font-family="sans-serif" font-size="6.6" lengthAdjust="spacingAndGlyphs" textLength="81.6" x="283.746" y="164.9373">resumeView : ResumeView</text><rect fill="none" height="3.6" style="stroke: #C82930; stroke-width: 0.6;" width="3.6" x="276.546" y="168.7875"/><text fill="#000000" font-family="sans-serif" font-size="6.6" lengthAdjust="spacingAndGlyphs" textLength="37.8" x="283.746" y="173.2389">game : Game</text><rect fill="none" height="3.6" style="stroke: #C82930; stroke-width: 0.6;" width="3.6" x="276.546" y="177.0891"/><text fill="#000000" font-family="sans-serif" font-size="6.6" lengthAdjust="spacingAndGlyphs" textLength="32.4" x="283.746" y="181.5404">reset : void</text><ellipse cx="278.346" cy="187.1906" fill="none" rx="1.8" ry="1.8" style="stroke: #038048; stroke-width: 0.6;"/><text fill="#000000" font-family="sans-serif" font-size="6.6" lengthAdjust="spacingAndGlyphs" textLength="39" x="283.746" y="189.842">interact : void</text><line style="stroke: #A80036; stroke-width: 0.8999999999999999;" x1="272.346" x2="368.346" y1="193.6922" y2="193.6922"/><!--MD5=[9f4dc69b0b544243f394be7db57a7790]
class views.console.GameView--><rect codeLine="39" fill="#FEFECE" filter="url(#f1g0wwzphecto7)" height="103.5141" id="views.console.GameView" style="stroke: #A80036; stroke-width: 0.8999999999999999;" width="128.4" x="216.546" y="246.9844"/><ellipse cx="260.196" cy="256.5844" fill="#ADD1B2" rx="6.6" ry="6.6" style="stroke: #A80036; stroke-width: 0.6;"/><path d="M261.396,254.4844 Q261.5179,254.1844 261.6585,254.0344 Q261.7991,253.8844 261.9585,253.8844 Q262.2398,253.8844 262.4179,254.0531 Q262.596,254.2219 262.596,254.6156 L262.596,255.5531 Q262.596,255.9469 262.4273,256.1156 Q262.2585,256.2844 261.996,256.2844 Q261.7616,256.2844 261.6116,256.1813 Q261.4616,256.0781 261.396,255.8062 Q261.3679,255.6187 261.2648,255.5156 Q261.0773,255.3188 260.7398,255.2062 Q260.4023,255.0844 260.0648,255.0844 Q259.6429,255.0844 259.2866,255.2531 Q258.9398,255.4219 258.6679,255.7969 Q258.396,256.1719 258.396,256.6875 L258.396,257.2406 Q258.396,257.8594 258.9023,258.2719 Q259.4085,258.6844 260.3085,258.6844 Q260.8429,258.6844 261.2179,258.5625 Q261.4335,258.4969 261.6773,258.2813 Q261.8366,258.1594 261.921,258.1219 Q262.0054,258.0844 262.1085,258.0844 Q262.3054,258.0844 262.446,258.2438 Q262.596,258.3938 262.596,258.6094 Q262.596,258.8156 262.3898,259.0594 Q262.0898,259.4156 261.6116,259.6125 Q260.9835,259.8844 260.2148,259.8844 Q259.3148,259.8844 258.5929,259.5281 Q258.0116,259.2469 257.5991,258.6375 Q257.196,258.0281 257.196,257.3063 L257.196,256.65 Q257.196,255.9 257.5523,255.2437 Q257.9179,254.5875 258.546,254.2406 Q259.1835,253.8844 259.896,253.8844 Q260.3273,253.8844 260.7023,254.0344 Q261.0773,254.1844 261.396,254.4844 Z " fill="#000000"/><text fill="#000000" font-family="sans-serif" font-size="7.2" lengthAdjust="spacingAndGlyphs" textLength="36" x="272.496" y="259.5305">GameView</text><line style="stroke: #A80036; stroke-width: 0.8999999999999999;" x1="217.146" x2="344.346" y1="266.1844" y2="266.1844"/><rect fill="none" height="3.6" style="stroke: #C82930; stroke-width: 0.6;" width="3.6" x="221.346" y="270.9844"/><text fill="#000000" font-family="sans-serif" font-size="6.6" lengthAdjust="spacingAndGlyphs" textLength="37.8" x="228.546" y="275.4357">game : Game</text><rect fill="none" height="3.6" style="stroke: #C82930; stroke-width: 0.6;" width="3.6" x="221.346" y="279.2859"/><text fill="#000000" font-family="sans-serif" font-size="6.6" lengthAdjust="spacingAndGlyphs" textLength="79.8" x="228.546" y="283.7373">attemptView : AttemptView</text><rect fill="none" height="3.6" style="stroke: #C82930; stroke-width: 0.6;" width="3.6" x="221.346" y="287.5875"/><text fill="#000000" font-family="sans-serif" font-size="6.6" lengthAdjust="spacingAndGlyphs" textLength="112.8" x="228.546" y="292.0389">secretCombination : SecretCombination</text><rect fill="none" height="3.6" style="stroke: #C82930; stroke-width: 0.6;" width="3.6" x="221.346" y="295.8891"/><text fill="#000000" font-family="sans-serif" font-size="6.6" lengthAdjust="spacingAndGlyphs" textLength="86.4" x="228.546" y="300.3404">writeSecretCombination : void</text><line style="stroke: #A80036; stroke-width: 0.8999999999999999;" x1="217.146" x2="344.346" y1="304.1906" y2="304.1906"/><ellipse cx="223.146" cy="310.7906" fill="#84BE84" rx="1.8" ry="1.8" style="stroke: #038048; stroke-width: 0.6;"/><text fill="#000000" font-family="sans-serif" font-size="6.6" lengthAdjust="spacingAndGlyphs" textLength="43.8" x="228.546" y="313.442">interact() : void</text><rect fill="#F24D5C" height="3.6" style="stroke: #C82930; stroke-width: 0.6;" width="3.6" x="221.346" y="317.2922"/><text fill="#000000" font-family="sans-serif" font-size="6.6" lengthAdjust="spacingAndGlyphs" textLength="82.8" x="228.546" y="321.7436">writeNumOfAttempts() : void</text><rect fill="#F24D5C" height="3.6" style="stroke: #C82930; stroke-width: 0.6;" width="3.6" x="221.346" y="325.5938"/><text fill="#000000" font-family="sans-serif" font-size="6.6" lengthAdjust="spacingAndGlyphs" textLength="55.2" x="228.546" y="330.0451">addAttempt() : void</text><rect fill="#F24D5C" height="3.6" style="stroke: #C82930; stroke-width: 0.6;" width="3.6" x="221.346" y="333.8953"/><text fill="#000000" font-family="sans-serif" font-size="6.6" lengthAdjust="spacingAndGlyphs" textLength="63" x="228.546" y="338.3467">writeAttempts() : void</text><ellipse cx="223.146" cy="343.9969" fill="#84BE84" rx="1.8" ry="1.8" style="stroke: #038048; stroke-width: 0.6;"/><text fill="#000000" font-family="sans-serif" font-size="6.6" lengthAdjust="spacingAndGlyphs" textLength="55.2" x="228.546" y="346.6482">writeResult() : void</text><!--MD5=[2f151284475d868f7c44c9f582652dcd]
class views.console.ResumeView--><rect codeLine="50" fill="#FEFECE" filter="url(#f1g0wwzphecto7)" height="37.1016" id="views.console.ResumeView" style="stroke: #A80036; stroke-width: 0.8999999999999999;" width="63.6" x="103.746" y="280.2844"/><ellipse cx="112.746" cy="289.8844" fill="#ADD1B2" rx="6.6" ry="6.6" style="stroke: #A80036; stroke-width: 0.6;"/><path d="M113.946,287.7844 Q114.0679,287.4844 114.2085,287.3344 Q114.3491,287.1844 114.5085,287.1844 Q114.7898,287.1844 114.9679,287.3531 Q115.146,287.5219 115.146,287.9156 L115.146,288.8531 Q115.146,289.2469 114.9773,289.4156 Q114.8085,289.5844 114.546,289.5844 Q114.3116,289.5844 114.1616,289.4813 Q114.0116,289.3781 113.946,289.1063 Q113.9179,288.9188 113.8148,288.8156 Q113.6273,288.6188 113.2898,288.5062 Q112.9523,288.3844 112.6148,288.3844 Q112.1929,288.3844 111.8366,288.5531 Q111.4898,288.7219 111.2179,289.0969 Q110.946,289.4719 110.946,289.9875 L110.946,290.5406 Q110.946,291.1594 111.4523,291.5719 Q111.9585,291.9844 112.8585,291.9844 Q113.3929,291.9844 113.7679,291.8625 Q113.9835,291.7969 114.2273,291.5813 Q114.3866,291.4594 114.471,291.4219 Q114.5554,291.3844 114.6585,291.3844 Q114.8554,291.3844 114.996,291.5438 Q115.146,291.6937 115.146,291.9094 Q115.146,292.1156 114.9398,292.3594 Q114.6398,292.7156 114.1616,292.9125 Q113.5335,293.1844 112.7648,293.1844 Q111.8648,293.1844 111.1429,292.8281 Q110.5616,292.5469 110.1491,291.9375 Q109.746,291.3281 109.746,290.6063 L109.746,289.95 Q109.746,289.2 110.1023,288.5438 Q110.4679,287.8875 111.096,287.5406 Q111.7335,287.1844 112.446,287.1844 Q112.8773,287.1844 113.2523,287.3344 Q113.6273,287.4844 113.946,287.7844 Z " fill="#000000"/><text fill="#000000" font-family="sans-serif" font-size="7.2" lengthAdjust="spacingAndGlyphs" textLength="44.4" x="121.146" y="292.8305">ResumeView</text><line style="stroke: #A80036; stroke-width: 0.8999999999999999;" x1="104.346" x2="166.746" y1="299.4844" y2="299.4844"/><line style="stroke: #A80036; stroke-width: 0.8999999999999999;" x1="104.346" x2="166.746" y1="304.2844" y2="304.2844"/><ellipse cx="110.346" cy="310.8844" fill="#84BE84" rx="1.8" ry="1.8" style="stroke: #038048; stroke-width: 0.6;"/><text fill="#000000" font-family="sans-serif" font-size="6.6" lengthAdjust="spacingAndGlyphs" textLength="43.8" x="115.746" y="313.5357">interact() : void</text><!--MD5=[937bc8db9504e57eafe08f070c3ff59c]
class views.console.AttemptView--><rect codeLine="53" fill="#FEFECE" filter="url(#f1g0wwzphecto7)" height="62.0062" id="views.console.AttemptView" style="stroke: #A80036; stroke-width: 0.8999999999999999;" width="168.6" x="75.846" y="407.7844"/><ellipse cx="137.496" cy="417.3844" fill="#ADD1B2" rx="6.6" ry="6.6" style="stroke: #A80036; stroke-width: 0.6;"/><path d="M138.696,415.2844 Q138.8179,414.9844 138.9585,414.8344 Q139.0991,414.6844 139.2585,414.6844 Q139.5398,414.6844 139.7179,414.8531 Q139.896,415.0219 139.896,415.4156 L139.896,416.3531 Q139.896,416.7469 139.7273,416.9156 Q139.5585,417.0844 139.296,417.0844 Q139.0616,417.0844 138.9116,416.9813 Q138.7616,416.8781 138.696,416.6063 Q138.6679,416.4188 138.5648,416.3156 Q138.3773,416.1188 138.0398,416.0062 Q137.7023,415.8844 137.3648,415.8844 Q136.9429,415.8844 136.5866,416.0531 Q136.2398,416.2219 135.9679,416.5969 Q135.696,416.9719 135.696,417.4875 L135.696,418.0406 Q135.696,418.6594 136.2023,419.0719 Q136.7085,419.4844 137.6085,419.4844 Q138.1429,419.4844 138.5179,419.3625 Q138.7335,419.2969 138.9773,419.0813 Q139.1366,418.9594 139.221,418.9219 Q139.3054,418.8844 139.4085,418.8844 Q139.6054,418.8844 139.746,419.0438 Q139.896,419.1937 139.896,419.4094 Q139.896,419.6156 139.6898,419.8594 Q139.3898,420.2156 138.9116,420.4125 Q138.2835,420.6844 137.5148,420.6844 Q136.6148,420.6844 135.8929,420.3281 Q135.3116,420.0469 134.8991,419.4375 Q134.496,418.8281 134.496,418.1063 L134.496,417.45 Q134.496,416.7 134.8523,416.0438 Q135.2179,415.3875 135.846,415.0406 Q136.4835,414.6844 137.196,414.6844 Q137.6273,414.6844 138.0023,414.8344 Q138.3773,414.9844 138.696,415.2844 Z " fill="#000000"/><text fill="#000000" font-family="sans-serif" font-size="7.2" lengthAdjust="spacingAndGlyphs" textLength="40.2" x="149.796" y="420.3305">AttemptView</text><line style="stroke: #A80036; stroke-width: 0.8999999999999999;" x1="76.446" x2="243.846" y1="426.9844" y2="426.9844"/><rect fill="none" height="3.6" style="stroke: #C82930; stroke-width: 0.6;" width="3.6" x="80.646" y="431.7844"/><text fill="#000000" font-family="sans-serif" font-size="6.6" lengthAdjust="spacingAndGlyphs" textLength="37.8" x="87.846" y="436.2357">game : Game</text><line style="stroke: #A80036; stroke-width: 0.8999999999999999;" x1="76.446" x2="243.846" y1="440.0859" y2="440.0859"/><ellipse cx="82.446" cy="446.6859" fill="#84BE84" rx="1.8" ry="1.8" style="stroke: #038048; stroke-width: 0.6;"/><text fill="#000000" font-family="sans-serif" font-size="6.6" lengthAdjust="spacingAndGlyphs" textLength="75" x="87.846" y="449.3373">writeln(int attempts) : void</text><ellipse cx="82.446" cy="454.9875" fill="#84BE84" rx="1.8" ry="1.8" style="stroke: #038048; stroke-width: 0.6;"/><text fill="#000000" font-family="sans-serif" font-size="6.6" lengthAdjust="spacingAndGlyphs" textLength="153" x="87.846" y="457.6389">interact(SecretCombination secretCombination) : void</text><ellipse cx="82.446" cy="463.2891" fill="#84BE84" rx="1.8" ry="1.8" style="stroke: #038048; stroke-width: 0.6;"/><text fill="#000000" font-family="sans-serif" font-size="6.6" lengthAdjust="spacingAndGlyphs" text-decoration="underline" textLength="112.8" x="87.846" y="465.9404">writeColors(Attempt addAttempt) : void</text><!--MD5=[52f795c826f81af7fbdfc10d6f76edf3]
class views.console.SecretCombinationView--><rect codeLine="59" fill="#FEFECE" filter="url(#f1g0wwzphecto7)" height="62.0062" id="views.console.SecretCombinationView" style="stroke: #A80036; stroke-width: 0.8999999999999999;" width="142.8" x="265.746" y="407.7844"/><ellipse cx="294.996" cy="417.3844" fill="#ADD1B2" rx="6.6" ry="6.6" style="stroke: #A80036; stroke-width: 0.6;"/><path d="M296.196,415.2844 Q296.3179,414.9844 296.4585,414.8344 Q296.5991,414.6844 296.7585,414.6844 Q297.0398,414.6844 297.2179,414.8531 Q297.396,415.0219 297.396,415.4156 L297.396,416.3531 Q297.396,416.7469 297.2273,416.9156 Q297.0585,417.0844 296.796,417.0844 Q296.5616,417.0844 296.4116,416.9813 Q296.2616,416.8781 296.196,416.6063 Q296.1679,416.4188 296.0648,416.3156 Q295.8773,416.1188 295.5398,416.0062 Q295.2023,415.8844 294.8648,415.8844 Q294.4429,415.8844 294.0866,416.0531 Q293.7398,416.2219 293.4679,416.5969 Q293.196,416.9719 293.196,417.4875 L293.196,418.0406 Q293.196,418.6594 293.7023,419.0719 Q294.2085,419.4844 295.1085,419.4844 Q295.6429,419.4844 296.0179,419.3625 Q296.2335,419.2969 296.4773,419.0813 Q296.6366,418.9594 296.721,418.9219 Q296.8054,418.8844 296.9085,418.8844 Q297.1054,418.8844 297.246,419.0438 Q297.396,419.1937 297.396,419.4094 Q297.396,419.6156 297.1898,419.8594 Q296.8898,420.2156 296.4116,420.4125 Q295.7835,420.6844 295.0148,420.6844 Q294.1148,420.6844 293.3929,420.3281 Q292.8116,420.0469 292.3991,419.4375 Q291.996,418.8281 291.996,418.1063 L291.996,417.45 Q291.996,416.7 292.3523,416.0438 Q292.7179,415.3875 293.346,415.0406 Q293.9835,414.6844 294.696,414.6844 Q295.1273,414.6844 295.5023,414.8344 Q295.8773,414.9844 296.196,415.2844 Z " fill="#000000"/><text fill="#000000" font-family="sans-serif" font-size="7.2" lengthAdjust="spacingAndGlyphs" textLength="79.2" x="307.296" y="420.3305">SecretCombinationView</text><line style="stroke: #A80036; stroke-width: 0.8999999999999999;" x1="266.346" x2="407.946" y1="426.9844" y2="426.9844"/><rect fill="none" height="3.6" style="stroke: #C82930; stroke-width: 0.6;" width="3.6" x="270.546" y="431.7844"/><text fill="#000000" font-family="sans-serif" font-size="6.6" lengthAdjust="spacingAndGlyphs" textLength="112.8" x="277.746" y="436.2357">secretCombination : SecretCombination</text><line style="stroke: #A80036; stroke-width: 0.8999999999999999;" x1="266.346" x2="407.946" y1="440.0859" y2="440.0859"/><ellipse cx="272.346" cy="446.6859" fill="#84BE84" rx="1.8" ry="1.8" style="stroke: #038048; stroke-width: 0.6;"/><text fill="#000000" font-family="sans-serif" font-size="6.6" lengthAdjust="spacingAndGlyphs" textLength="42" x="277.746" y="449.3373">writeln() : void</text><ellipse cx="272.346" cy="454.9875" fill="#84BE84" rx="1.8" ry="1.8" style="stroke: #038048; stroke-width: 0.6;"/><text fill="#000000" font-family="sans-serif" font-size="6.6" lengthAdjust="spacingAndGlyphs" textLength="127.2" x="277.746" y="457.6389">getSecretCombination() : SecretCombination</text><rect fill="#F24D5C" height="3.6" style="stroke: #C82930; stroke-width: 0.6;" width="3.6" x="270.546" y="461.4891"/><text fill="#000000" font-family="sans-serif" font-size="6.6" lengthAdjust="spacingAndGlyphs" textLength="55.8" x="277.746" y="465.9404">writeColors() : void</text><!--MD5=[e1bf3332b0c1ecb9e7e1b3ba5e35aae1]
class views.graphic.View--><rect codeLine="23" fill="#FEFECE" filter="url(#f1g0wwzphecto7)" height="70.3078" id="views.graphic.View" style="stroke: #A80036; stroke-width: 0.8999999999999999;" width="97.2" x="851.346" y="128.1844"/><ellipse cx="889.596" cy="137.7844" fill="#ADD1B2" rx="6.6" ry="6.6" style="stroke: #A80036; stroke-width: 0.6;"/><path d="M890.796,135.6844 Q890.9179,135.3844 891.0585,135.2344 Q891.1991,135.0844 891.3585,135.0844 Q891.6397,135.0844 891.8179,135.2531 Q891.996,135.4219 891.996,135.8156 L891.996,136.7531 Q891.996,137.1469 891.8272,137.3156 Q891.6585,137.4844 891.396,137.4844 Q891.1616,137.4844 891.0116,137.3813 Q890.8616,137.2781 890.796,137.0063 Q890.7679,136.8188 890.6647,136.7156 Q890.4772,136.5187 890.1397,136.4063 Q889.8022,136.2844 889.4647,136.2844 Q889.0429,136.2844 888.6866,136.4531 Q888.3397,136.6219 888.0679,136.9969 Q887.796,137.3719 887.796,137.8875 L887.796,138.4406 Q887.796,139.0594 888.3022,139.4719 Q888.8085,139.8844 889.7085,139.8844 Q890.2429,139.8844 890.6179,139.7625 Q890.8335,139.6969 891.0772,139.4813 Q891.2366,139.3594 891.321,139.3219 Q891.4054,139.2844 891.5085,139.2844 Q891.7054,139.2844 891.846,139.4438 Q891.996,139.5938 891.996,139.8094 Q891.996,140.0156 891.7897,140.2594 Q891.4897,140.6156 891.0116,140.8125 Q890.3835,141.0844 889.6147,141.0844 Q888.7147,141.0844 887.9929,140.7281 Q887.4116,140.4469 886.9991,139.8375 Q886.596,139.2281 886.596,138.5063 L886.596,137.85 Q886.596,137.1 886.9522,136.4438 Q887.3179,135.7875 887.946,135.4406 Q888.5835,135.0844 889.296,135.0844 Q889.7272,135.0844 890.1022,135.2344 Q890.4772,135.3844 890.796,135.6844 Z " fill="#000000"/><text fill="#000000" font-family="sans-serif" font-size="7.2" lengthAdjust="spacingAndGlyphs" textLength="15.6" x="901.896" y="140.7305">View</text><line style="stroke: #A80036; stroke-width: 0.8999999999999999;" x1="851.946" x2="947.946" y1="147.3844" y2="147.3844"/><rect fill="none" height="3.6" style="stroke: #C82930; stroke-width: 0.6;" width="3.6" x="856.146" y="152.1844"/><text fill="#000000" font-family="sans-serif" font-size="6.6" lengthAdjust="spacingAndGlyphs" textLength="69" x="863.346" y="156.6357">gameView : GameView</text><rect fill="none" height="3.6" style="stroke: #C82930; stroke-width: 0.6;" width="3.6" x="856.146" y="160.4859"/><text fill="#000000" font-family="sans-serif" font-size="6.6" lengthAdjust="spacingAndGlyphs" textLength="81.6" x="863.346" y="164.9373">resumeView : ResumeView</text><rect fill="none" height="3.6" style="stroke: #C82930; stroke-width: 0.6;" width="3.6" x="856.146" y="168.7875"/><text fill="#000000" font-family="sans-serif" font-size="6.6" lengthAdjust="spacingAndGlyphs" textLength="37.8" x="863.346" y="173.2389">game : Game</text><rect fill="none" height="3.6" style="stroke: #C82930; stroke-width: 0.6;" width="3.6" x="856.146" y="177.0891"/><text fill="#000000" font-family="sans-serif" font-size="6.6" lengthAdjust="spacingAndGlyphs" textLength="32.4" x="863.346" y="181.5404">reset : void</text><ellipse cx="857.946" cy="187.1906" fill="none" rx="1.8" ry="1.8" style="stroke: #038048; stroke-width: 0.6;"/><text fill="#000000" font-family="sans-serif" font-size="6.6" lengthAdjust="spacingAndGlyphs" textLength="39" x="863.346" y="189.842">interact : void</text><line style="stroke: #A80036; stroke-width: 0.8999999999999999;" x1="851.946" x2="947.946" y1="193.6922" y2="193.6922"/><!--MD5=[fb0fbda9cd49758390b6a4db09b8b088]
class utils.IO--><rect fill="#FEFECE" filter="url(#f1g0wwzphecto7)" height="28.8" id="utils.IO" style="stroke: #A80036; stroke-width: 0.8999999999999999;" width="26.4" x="146.946" y="536.1844"/><ellipse cx="155.946" cy="545.7844" fill="#ADD1B2" rx="6.6" ry="6.6" style="stroke: #A80036; stroke-width: 0.6;"/><path d="M157.146,543.6844 Q157.2679,543.3844 157.4085,543.2344 Q157.5491,543.0844 157.7085,543.0844 Q157.9898,543.0844 158.1679,543.2531 Q158.346,543.4219 158.346,543.8156 L158.346,544.7531 Q158.346,545.1469 158.1773,545.3156 Q158.0085,545.4844 157.746,545.4844 Q157.5116,545.4844 157.3616,545.3813 Q157.2116,545.2781 157.146,545.0063 Q157.1179,544.8188 157.0148,544.7156 Q156.8273,544.5188 156.4898,544.4063 Q156.1523,544.2844 155.8148,544.2844 Q155.3929,544.2844 155.0366,544.4531 Q154.6898,544.6219 154.4179,544.9969 Q154.146,545.3719 154.146,545.8875 L154.146,546.4406 Q154.146,547.0594 154.6523,547.4719 Q155.1585,547.8844 156.0585,547.8844 Q156.5929,547.8844 156.9679,547.7625 Q157.1835,547.6969 157.4273,547.4812 Q157.5866,547.3594 157.671,547.3219 Q157.7554,547.2844 157.8585,547.2844 Q158.0554,547.2844 158.196,547.4438 Q158.346,547.5938 158.346,547.8094 Q158.346,548.0156 158.1398,548.2594 Q157.8398,548.6156 157.3616,548.8125 Q156.7335,549.0844 155.9648,549.0844 Q155.0648,549.0844 154.3429,548.7281 Q153.7616,548.4469 153.3491,547.8375 Q152.946,547.2281 152.946,546.5063 L152.946,545.85 Q152.946,545.1 153.3023,544.4438 Q153.6679,543.7875 154.296,543.4406 Q154.9335,543.0844 155.646,543.0844 Q156.0773,543.0844 156.4523,543.2344 Q156.8273,543.3844 157.146,543.6844 Z " fill="#000000"/><text fill="#000000" font-family="sans-serif" font-size="7.2" lengthAdjust="spacingAndGlyphs" textLength="7.2" x="164.346" y="548.7305">IO</text><line style="stroke: #A80036; stroke-width: 0.8999999999999999;" x1="147.546" x2="172.746" y1="555.3844" y2="555.3844"/><line style="stroke: #A80036; stroke-width: 0.8999999999999999;" x1="147.546" x2="172.746" y1="560.1844" y2="560.1844"/><!--MD5=[ae8b7cdc49d99fbec8c7e641a97b4a7f]
class utils.YesNoDialog--><rect fill="#FEFECE" filter="url(#f1g0wwzphecto7)" height="28.8" id="utils.YesNoDialog" style="stroke: #A80036; stroke-width: 0.8999999999999999;" width="63" x="62.646" y="536.1844"/><ellipse cx="71.646" cy="545.7844" fill="#ADD1B2" rx="6.6" ry="6.6" style="stroke: #A80036; stroke-width: 0.6;"/><path d="M72.846,543.6844 Q72.9679,543.3844 73.1085,543.2344 Q73.2491,543.0844 73.4085,543.0844 Q73.6897,543.0844 73.8679,543.2531 Q74.046,543.4219 74.046,543.8156 L74.046,544.7531 Q74.046,545.1469 73.8772,545.3156 Q73.7085,545.4844 73.446,545.4844 Q73.2116,545.4844 73.0616,545.3813 Q72.9116,545.2781 72.846,545.0063 Q72.8179,544.8188 72.7148,544.7156 Q72.5273,544.5188 72.1897,544.4063 Q71.8523,544.2844 71.5147,544.2844 Q71.0929,544.2844 70.7366,544.4531 Q70.3897,544.6219 70.1179,544.9969 Q69.846,545.3719 69.846,545.8875 L69.846,546.4406 Q69.846,547.0594 70.3523,547.4719 Q70.8585,547.8844 71.7585,547.8844 Q72.2929,547.8844 72.6679,547.7625 Q72.8835,547.6969 73.1272,547.4812 Q73.2866,547.3594 73.371,547.3219 Q73.4554,547.2844 73.5585,547.2844 Q73.7554,547.2844 73.896,547.4438 Q74.046,547.5938 74.046,547.8094 Q74.046,548.0156 73.8398,548.2594 Q73.5398,548.6156 73.0616,548.8125 Q72.4335,549.0844 71.6648,549.0844 Q70.7647,549.0844 70.0429,548.7281 Q69.4616,548.4469 69.0491,547.8375 Q68.646,547.2281 68.646,546.5063 L68.646,545.85 Q68.646,545.1 69.0022,544.4438 Q69.3679,543.7875 69.996,543.4406 Q70.6335,543.0844 71.346,543.0844 Q71.7773,543.0844 72.1523,543.2344 Q72.5273,543.3844 72.846,543.6844 Z " fill="#000000"/><text fill="#000000" font-family="sans-serif" font-size="7.2" lengthAdjust="spacingAndGlyphs" textLength="43.8" x="80.046" y="548.7305">YesNoDialog</text><line style="stroke: #A80036; stroke-width: 0.8999999999999999;" x1="63.246" x2="125.046" y1="555.3844" y2="555.3844"/><line style="stroke: #A80036; stroke-width: 0.8999999999999999;" x1="63.246" x2="125.046" y1="560.1844" y2="560.1844"/><!--MD5=[7d8092add2854851765564a4bac2e2df]
class MastermindConsole--><rect codeLine="4" fill="#FEFECE" filter="url(#f1g0wwzphecto7)" height="62.0062" id="MastermindConsole" style="stroke: #A80036; stroke-width: 0.8999999999999999;" width="86.4" x="494.346" y="17.7844"/><ellipse cx="503.346" cy="27.3844" fill="#ADD1B2" rx="6.6" ry="6.6" style="stroke: #A80036; stroke-width: 0.6;"/><path d="M504.546,25.2844 Q504.6679,24.9844 504.8085,24.8344 Q504.9491,24.6844 505.1085,24.6844 Q505.3897,24.6844 505.5679,24.8531 Q505.746,25.0219 505.746,25.4156 L505.746,26.3531 Q505.746,26.7469 505.5772,26.9156 Q505.4085,27.0844 505.146,27.0844 Q504.9116,27.0844 504.7616,26.9813 Q504.6116,26.8781 504.546,26.6063 Q504.5179,26.4188 504.4147,26.3156 Q504.2272,26.1188 503.8897,26.0062 Q503.5522,25.8844 503.2148,25.8844 Q502.7929,25.8844 502.4366,26.0531 Q502.0898,26.2219 501.8179,26.5969 Q501.546,26.9719 501.546,27.4875 L501.546,28.0406 Q501.546,28.6594 502.0522,29.0719 Q502.5585,29.4844 503.4585,29.4844 Q503.9929,29.4844 504.3679,29.3625 Q504.5835,29.2969 504.8272,29.0812 Q504.9866,28.9594 505.071,28.9219 Q505.1554,28.8844 505.2585,28.8844 Q505.4554,28.8844 505.596,29.0438 Q505.746,29.1937 505.746,29.4094 Q505.746,29.6156 505.5397,29.8594 Q505.2397,30.2156 504.7616,30.4125 Q504.1335,30.6844 503.3647,30.6844 Q502.4648,30.6844 501.7429,30.3281 Q501.1616,30.0469 500.7491,29.4375 Q500.346,28.8281 500.346,28.1063 L500.346,27.45 Q500.346,26.7 500.7022,26.0438 Q501.0679,25.3875 501.696,25.0406 Q502.3335,24.6844 503.046,24.6844 Q503.4772,24.6844 503.8522,24.8344 Q504.2272,24.9844 504.546,25.2844 Z " fill="#000000"/><text fill="#000000" font-family="sans-serif" font-size="7.2" lengthAdjust="spacingAndGlyphs" textLength="67.2" x="511.746" y="30.3305">MastermindConsole</text><line style="stroke: #A80036; stroke-width: 0.8999999999999999;" x1="494.946" x2="580.146" y1="36.9844" y2="36.9844"/><rect fill="none" height="3.6" style="stroke: #C82930; stroke-width: 0.6;" width="3.6" x="499.146" y="41.7844"/><text fill="#000000" font-family="sans-serif" font-size="6.6" lengthAdjust="spacingAndGlyphs" textLength="37.8" x="506.346" y="46.2357">game : Game</text><rect fill="none" height="3.6" style="stroke: #C82930; stroke-width: 0.6;" width="3.6" x="499.146" y="50.0859"/><text fill="#000000" font-family="sans-serif" font-size="6.6" lengthAdjust="spacingAndGlyphs" textLength="35.4" x="506.346" y="54.5373">view : View</text><text fill="#000000" font-family="sans-serif" font-size="6.6" lengthAdjust="spacingAndGlyphs" text-decoration="underline" textLength="28.8" x="506.346" y="62.8389">main :void</text><line style="stroke: #A80036; stroke-width: 0.8999999999999999;" x1="494.946" x2="580.146" y1="66.6891" y2="66.6891"/><ellipse cx="500.946" cy="73.2891" fill="#84BE84" rx="1.8" ry="1.8" style="stroke: #038048; stroke-width: 0.6;"/><text fill="#000000" font-family="sans-serif" font-size="6.6" lengthAdjust="spacingAndGlyphs" textLength="34.2" x="506.346" y="75.9404">play() : void</text><!--MD5=[90d4580b6b4a24137765d7649efe53e2]
class MastermindGraphic--><rect codeLine="12" fill="#FEFECE" filter="url(#f1g0wwzphecto7)" height="62.0062" id="MastermindGraphic" style="stroke: #A80036; stroke-width: 0.8999999999999999;" width="84" x="785.946" y="17.7844"/><ellipse cx="794.946" cy="27.3844" fill="#ADD1B2" rx="6.6" ry="6.6" style="stroke: #A80036; stroke-width: 0.6;"/><path d="M796.146,25.2844 Q796.2679,24.9844 796.4085,24.8344 Q796.5491,24.6844 796.7085,24.6844 Q796.9897,24.6844 797.1679,24.8531 Q797.346,25.0219 797.346,25.4156 L797.346,26.3531 Q797.346,26.7469 797.1772,26.9156 Q797.0085,27.0844 796.746,27.0844 Q796.5116,27.0844 796.3616,26.9813 Q796.2116,26.8781 796.146,26.6063 Q796.1179,26.4188 796.0147,26.3156 Q795.8272,26.1188 795.4897,26.0062 Q795.1522,25.8844 794.8147,25.8844 Q794.3929,25.8844 794.0366,26.0531 Q793.6897,26.2219 793.4179,26.5969 Q793.146,26.9719 793.146,27.4875 L793.146,28.0406 Q793.146,28.6594 793.6522,29.0719 Q794.1585,29.4844 795.0585,29.4844 Q795.5929,29.4844 795.9679,29.3625 Q796.1835,29.2969 796.4272,29.0812 Q796.5866,28.9594 796.671,28.9219 Q796.7554,28.8844 796.8585,28.8844 Q797.0554,28.8844 797.196,29.0438 Q797.346,29.1937 797.346,29.4094 Q797.346,29.6156 797.1397,29.8594 Q796.8397,30.2156 796.3616,30.4125 Q795.7335,30.6844 794.9647,30.6844 Q794.0647,30.6844 793.3429,30.3281 Q792.7616,30.0469 792.3491,29.4375 Q791.946,28.8281 791.946,28.1063 L791.946,27.45 Q791.946,26.7 792.3022,26.0438 Q792.6679,25.3875 793.296,25.0406 Q793.9335,24.6844 794.646,24.6844 Q795.0772,24.6844 795.4522,24.8344 Q795.8272,24.9844 796.146,25.2844 Z " fill="#000000"/><text fill="#000000" font-family="sans-serif" font-size="7.2" lengthAdjust="spacingAndGlyphs" textLength="64.8" x="803.346" y="30.3305">MastermindGraphic</text><line style="stroke: #A80036; stroke-width: 0.8999999999999999;" x1="786.546" x2="869.346" y1="36.9844" y2="36.9844"/><rect fill="none" height="3.6" style="stroke: #C82930; stroke-width: 0.6;" width="3.6" x="790.746" y="41.7844"/><text fill="#000000" font-family="sans-serif" font-size="6.6" lengthAdjust="spacingAndGlyphs" textLength="37.8" x="797.946" y="46.2357">game : Game</text><rect fill="none" height="3.6" style="stroke: #C82930; stroke-width: 0.6;" width="3.6" x="790.746" y="50.0859"/><text fill="#000000" font-family="sans-serif" font-size="6.6" lengthAdjust="spacingAndGlyphs" textLength="35.4" x="797.946" y="54.5373">view : View</text><text fill="#000000" font-family="sans-serif" font-size="6.6" lengthAdjust="spacingAndGlyphs" text-decoration="underline" textLength="28.8" x="797.946" y="62.8389">main :void</text><line style="stroke: #A80036; stroke-width: 0.8999999999999999;" x1="786.546" x2="869.346" y1="66.6891" y2="66.6891"/><ellipse cx="792.546" cy="73.2891" fill="#84BE84" rx="1.8" ry="1.8" style="stroke: #038048; stroke-width: 0.6;"/><text fill="#000000" font-family="sans-serif" font-size="6.6" lengthAdjust="spacingAndGlyphs" textLength="34.2" x="797.946" y="75.9404">play() : void</text><!--MD5=[167e948f3f9bc053e43e09ed41780785]
link MastermindConsole to models.Game--><path codeLine="10" d="M587.3445,75.1471 C587.3445,75.1471 667.914,116.9764 702.906,135.1444 " fill="none" id="MastermindConsole-models.Game" style="stroke: #A80036; stroke-width: 0.6;"/><polygon fill="#A80036" points="709.98,138.8164,706.2911,134.1999,707.3168,137.4353,704.0814,138.4611,709.98,138.8164" style="stroke: #A80036; stroke-width: 0.6;"/><line style="stroke: #A80036; stroke-width: 0.6;" x1="707.3168" x2="703.059" y1="137.4353" y2="135.2224"/><polygon fill="#A80036" points="580.956,71.8264,583.0433,75.6162,587.3445,75.1471,585.2572,71.3573,580.956,71.8264" style="stroke: #A80036; stroke-width: 0.6;"/><!--MD5=[3adc50e97ba87430bf3d7918b0e4eae9]
link MastermindConsole to views.console.View--><path codeLine="11" d="M487.7361,75.2918 C487.7361,75.2918 410.25,115.7464 375.954,133.6564 " fill="none" id="MastermindConsole-views.console.View" style="stroke: #A80036; stroke-width: 0.6;"/><polygon fill="#A80036" points="369,137.2804,374.8977,136.9106,371.6598,135.8928,372.6776,132.6549,369,137.2804" style="stroke: #A80036; stroke-width: 0.6;"/><line style="stroke: #A80036; stroke-width: 0.6;" x1="371.6598" x2="375.915" y1="135.8928" y2="133.6714"/><polygon fill="#A80036" points="494.118,71.9584,489.8159,71.4978,487.7361,75.2918,492.0382,75.7524,494.118,71.9584" style="stroke: #A80036; stroke-width: 0.6;"/><!--MD5=[1bd165a78a652340cfefe5a8d4601f45]
link MastermindGraphic to models.Game--><path codeLine="18" d="M804.7886,85.7513 C804.7886,85.7513 794.964,101.2324 790.116,108.8704 " fill="none" id="MastermindGraphic-models.Game" style="stroke: #A80036; stroke-width: 0.6;"/><polygon fill="#A80036" points="785.874,115.5484,790.7957,112.2778,787.4829,113.0163,786.7444,109.7035,785.874,115.5484" style="stroke: #A80036; stroke-width: 0.6;"/><line style="stroke: #A80036; stroke-width: 0.6;" x1="787.4829" x2="790.056" y1="113.0163" y2="108.9604"/><polygon fill="#A80036" points="808.65,79.6744,804.6936,81.4257,804.7886,85.7513,808.745,84,808.65,79.6744" style="stroke: #A80036; stroke-width: 0.6;"/><!--MD5=[494195dc0a0ec0db43de3f5d30349416]
link MastermindGraphic to views.graphic.View--><path codeLine="19" d="M851.1034,85.7513 C851.1034,85.7513 866.43,109.8964 873.714,121.3684 " fill="none" id="MastermindGraphic-views.graphic.View" style="stroke: #A80036; stroke-width: 0.6;"/><polygon fill="#A80036" points="877.926,127.9984,877.0556,122.1535,876.3171,125.4663,873.0043,124.7278,877.926,127.9984" style="stroke: #A80036; stroke-width: 0.6;"/><line style="stroke: #A80036; stroke-width: 0.6;" x1="876.3171" x2="873.744" y1="125.4663" y2="121.4164"/><polygon fill="#A80036" points="847.242,79.6744,847.147,84,851.1034,85.7513,851.1984,81.4257,847.242,79.6744" style="stroke: #A80036; stroke-width: 0.6;"/><!--MD5=[b20b959a516d524aa5a3fb6e7f7f4fd1]
link views.console.View to views.console.GameView--><path codeLine="65" d="M308.1187,205.4053 C308.1187,205.4053 301.446,228.0304 298.17,239.1604 " fill="none" id="views.console.View-views.console.GameView" style="stroke: #A80036; stroke-width: 0.6;"/><polygon fill="#A80036" points="295.914,246.7984,299.7413,242.2959,296.7612,243.9205,295.1367,240.9404,295.914,246.7984" style="stroke: #A80036; stroke-width: 0.6;"/><line style="stroke: #A80036; stroke-width: 0.6;" x1="296.7612" x2="298.119" y1="243.9205" y2="239.3194"/><polygon fill="#A80036" points="310.152,198.4984,306.833,201.2741,308.1187,205.4053,311.4377,202.6296,310.152,198.4984" style="stroke: #A80036; stroke-width: 0.6;"/><!--MD5=[87f78d92648bcb3054d13c8f8a374791]
link views.console.View to views.console.ResumeView--><path codeLine="66" d="M272.754,198.4984 C237.876,223.8604 191.754,257.4064 162.87,278.4124 " fill="none" id="views.console.View-to-views.console.ResumeView" style="stroke: #A80036; stroke-width: 0.6; stroke-dasharray: 7.0,7.0;"/><polygon fill="#A80036" points="160.302,280.2784,166.0831,279.0542,162.7315,278.5185,163.2672,275.1669,160.302,280.2784" style="stroke: #A80036; stroke-width: 0.6;"/><!--MD5=[6e1613315990f2ca1f3a506a063b27d9]
link views.console.GameView to views.console.AttemptView--><path codeLine="67" d="M231.2834,356.3297 C231.2834,356.3297 203.658,388.0804 191.748,401.7664 " fill="none" id="views.console.GameView-views.console.AttemptView" style="stroke: #A80036; stroke-width: 0.6;"/><polygon fill="#A80036" points="186.6,407.6884,191.9575,405.1949,188.5713,405.427,188.3392,402.0408,186.6,407.6884" style="stroke: #A80036; stroke-width: 0.6;"/><line style="stroke: #A80036; stroke-width: 0.6;" x1="188.5713" x2="191.718" y1="405.427" y2="401.8024"/><polygon fill="#FFFFFF" points="236.01,350.8984,231.8363,352.0385,231.2834,356.3297,235.4571,355.1896,236.01,350.8984" style="stroke: #A80036; stroke-width: 0.6;"/><!--MD5=[dd513d09b716009f5ca464e3278bbb9d]
link views.console.GameView to views.console.SecretCombinationView--><path codeLine="68" d="M304.3815,357.5675 C304.3815,357.5675 316.53,387.4144 321.834,400.4524 " fill="none" id="views.console.GameView-views.console.SecretCombinationView" style="stroke: #A80036; stroke-width: 0.6;"/><polygon fill="#A80036" points="324.78,407.6884,324.9679,401.782,323.6494,404.9096,320.5218,403.5911,324.78,407.6884" style="stroke: #A80036; stroke-width: 0.6;"/><line style="stroke: #A80036; stroke-width: 0.6;" x1="323.6494" x2="321.837" y1="404.9096" y2="400.4614"/><polygon fill="#A80036" points="301.668,350.8984,300.8017,355.1374,304.3815,357.5675,305.2478,353.3284,301.668,350.8984" style="stroke: #A80036; stroke-width: 0.6;"/><!--MD5=[6582ae606042274016c5ca6600923c57]
link models.Game to models.Attempt--><path codeLine="93" d="M755.946,218.2804 C755.946,218.2804 755.946,260.7964 755.946,276.3904 " fill="none" id="models.Game-models.Attempt" style="stroke: #A80036; stroke-width: 0.6;"/><polygon fill="#A80036" points="755.946,284.3824,758.346,278.9824,755.946,281.3824,753.546,278.9824,755.946,284.3824" style="stroke: #A80036; stroke-width: 0.6;"/><line style="stroke: #A80036; stroke-width: 0.6;" x1="755.946" x2="755.946" y1="281.3824" y2="276.5824"/><polygon fill="#FFFFFF" points="755.946,211.0804,753.546,214.6804,755.946,218.2804,758.346,214.6804,755.946,211.0804" style="stroke: #A80036; stroke-width: 0.6;"/><text fill="#000000" font-family="sans-serif" font-size="7.8" lengthAdjust="spacingAndGlyphs" textLength="15" x="739.0241" y="277.9603">0-10</text><!--MD5=[580af4c6a6e74e4c15178ccc0209456c]
link models.Attempt to models.ProposedCombination--><path codeLine="94" d="M742.9821,319.5862 C742.9821,319.5862 696.714,391.3144 679.824,417.4984 " fill="none" id="models.Attempt-models.ProposedCombination" style="stroke: #A80036; stroke-width: 0.6;"/><polygon fill="#A80036" points="675.504,424.2004,680.4466,420.9614,677.1291,421.6787,676.4118,418.3612,675.504,424.2004" style="stroke: #A80036; stroke-width: 0.6;"/><line style="stroke: #A80036; stroke-width: 0.6;" x1="677.1291" x2="679.731" y1="421.6787" y2="417.6454"/><polygon fill="#A80036" points="746.886,313.5364,742.9175,315.26,742.9821,319.5862,746.9507,317.8626,746.886,313.5364" style="stroke: #A80036; stroke-width: 0.6;"/><!--MD5=[2842eeb7cb413ce4a0cae5dd91421a68]
link models.Attempt to models.SecretCombination--><path codeLine="95" d="M759.0608,320.6602 C759.0608,320.6602 769.35,390.5464 773.16,416.4424 " fill="none" id="models.Attempt-models.SecretCombination" style="stroke: #A80036; stroke-width: 0.6;"/><polygon fill="#A80036" points="774.306,424.2004,775.897,418.5093,773.8707,421.2321,771.1478,419.2058,774.306,424.2004" style="stroke: #A80036; stroke-width: 0.6;"/><line style="stroke: #A80036; stroke-width: 0.6;" x1="773.8707" x2="773.166" y1="421.2321" y2="416.4844"/><polygon fill="#A80036" points="758.016,313.5364,756.1638,317.4465,759.0608,320.6602,760.913,316.75,758.016,313.5364" style="stroke: #A80036; stroke-width: 0.6;"/><!--MD5=[7be7e42121b56f70d24468abf75f28a7]
reverse link models.Combination to models.ProposedCombination--><path codeLine="96" d="M666.546,325.6384 C666.546,354.9064 666.546,401.2204 666.546,424.2004 " fill="none" id="models.Combination-backto-models.ProposedCombination" style="stroke: #A80036; stroke-width: 0.6;"/><polygon fill="none" points="662.346,325.5364,666.546,313.5364,670.746,325.5364,662.346,325.5364" style="stroke: #A80036; stroke-width: 0.6;"/><!--MD5=[15f43ae688a3fcde37d838d03858a71c]
reverse link models.Combination to models.SecretCombination--><path codeLine="97" d="M685.266,323.1124 C708.288,352.1704 746.61,400.5424 765.348,424.2004 " fill="none" id="models.Combination-backto-models.SecretCombination" style="stroke: #A80036; stroke-width: 0.6;"/><polygon fill="none" points="681.84,325.5484,677.682,313.5364,688.422,320.3344,681.84,325.5484" style="stroke: #A80036; stroke-width: 0.6;"/><!--MD5=[c7181f6df9357bb60e274c04665004a0]
link models.Combination to models.Color--><path codeLine="98" d="M648.271,318.7601 C648.271,318.7601 610.146,358.9744 589.41,380.8444 " fill="none" id="models.Combination-models.Color" style="stroke: #A80036; stroke-width: 0.6;"/><polygon fill="#A80036" points="583.896,386.6644,589.3535,384.3983,585.9606,384.4878,585.871,381.0949,583.896,386.6644" style="stroke: #A80036; stroke-width: 0.6;"/><line style="stroke: #A80036; stroke-width: 0.6;" x1="585.9606" x2="589.263" y1="384.4878" y2="381.0034"/><polygon fill="#A80036" points="653.226,313.5364,649.0072,314.4966,648.271,318.7601,652.4897,317.7999,653.226,313.5364" style="stroke: #A80036; stroke-width: 0.6;"/><text fill="#000000" font-family="sans-serif" font-size="7.8" lengthAdjust="spacingAndGlyphs" textLength="4.2" x="583.705" y="380.2998">4</text><!--MD5=[ad65fdb2078c08fb327fea990917bd9e]
link views.console.View to utils.IO--><path codeLine="102" d="M348.906,198.6244 C400.296,265.5244 496.164,413.6824 419.346,504.9844 C387.954,542.2984 228.6,548.6704 176.592,549.7624 " fill="none" id="views.console.View-to-utils.IO" style="stroke: #A80036; stroke-width: 0.6; stroke-dasharray: 7.0,7.0;"/><polygon fill="#A80036" points="173.466,549.8224,178.9063,552.1295,176.4656,549.771,178.8241,547.3302,173.466,549.8224" style="stroke: #A80036; stroke-width: 0.6;"/><!--MD5=[aafeeb0939e5a01429693e397808da8c]
link views.console.GameView to utils.IO--><path codeLine="103" d="M216.312,333.5944 C203.808,339.6724 190.692,345.6844 178.146,350.7844 C129.402,370.6084 96.39,344.2924 65.346,386.7844 C34.356,429.2044 29.478,466.6024 65.346,504.9844 C76.116,516.5044 122.706,501.5404 136.146,509.7844 C144.798,515.0884 150.72,524.7844 154.518,533.3284 " fill="none" id="views.console.GameView-to-utils.IO" style="stroke: #A80036; stroke-width: 0.6; stroke-dasharray: 7.0,7.0;"/><polygon fill="#A80036" points="155.724,536.1724,155.8183,530.2638,154.5495,533.4118,151.4015,532.143,155.724,536.1724" style="stroke: #A80036; stroke-width: 0.6;"/><!--MD5=[720643f3e108c024c916c5a3d959144e]
link views.console.SecretCombinationView to utils.IO--><path codeLine="104" d="M302.868,469.6144 C288.6,481.4464 271.524,494.6224 254.946,504.9844 C228.774,521.3464 195.72,535.7644 176.358,543.6424 " fill="none" id="views.console.SecretCombinationView-to-utils.IO" style="stroke: #A80036; stroke-width: 0.6; stroke-dasharray: 7.0,7.0;"/><polygon fill="#A80036" points="173.37,544.8484,179.2757,545.0556,176.1525,543.7268,177.4812,540.6036,173.37,544.8484" style="stroke: #A80036; stroke-width: 0.6;"/><!--MD5=[c7c1302a0008715e5c7ff34117f3079c]
link views.console.AttemptView to utils.IO--><path codeLine="105" d="M160.146,469.8244 C160.146,490.1884 160.146,516.2044 160.146,532.9744 " fill="none" id="views.console.AttemptView-to-utils.IO" style="stroke: #A80036; stroke-width: 0.6; stroke-dasharray: 7.0,7.0;"/><polygon fill="#A80036" points="160.146,535.9984,162.546,530.5984,160.146,532.9984,157.746,530.5984,160.146,535.9984" style="stroke: #A80036; stroke-width: 0.6;"/><!--MD5=[7b8f2b821a3ff6e9cb5a074021699b76]
link views.console.ResumeView to utils.YesNoDialog--><path codeLine="106" d="M103.524,315.2524 C77.844,329.8624 43.632,354.2404 28.146,386.7844 C5.574,434.2204 3.6,458.5384 28.146,504.9844 C35.046,518.0344 47.616,528.0124 59.946,535.2124 " fill="none" id="views.console.ResumeView-to-utils.YesNoDialog" style="stroke: #A80036; stroke-width: 0.6; stroke-dasharray: 7.0,7.0;"/><polygon fill="#A80036" points="62.574,536.7124,59.0678,531.9557,59.9666,535.2286,56.6937,536.1274,62.574,536.7124" style="stroke: #A80036; stroke-width: 0.6;"/><!--MD5=[18400794b8418af465fced5f484b6562]
@startuml

title Mastermind Controler View

class MastermindConsole{
- game : Game
- view : View
+ play() : void
{static} main :void
}
MastermindConsole *- -> models.Game
MastermindConsole *- -> views.console.View
class MastermindGraphic{
- game : Game
- view : View
+ play() : void
{static} main :void
}
MastermindGraphic *- -> models.Game
MastermindGraphic *- -> views.graphic.View


namespace views.graphic{
class View{
- gameView : GameView
- resumeView : ResumeView
- game : Game
- reset : void
+ interact : void
}
}
namespace views.console{
class View{
- gameView : GameView
- resumeView : ResumeView
- game : Game
- reset : void
+ interact : void
}
class GameView{
- game : Game
- attemptView : AttemptView
- secretCombination : SecretCombination
+ interact() : void
- writeNumOfAttempts() : void
- writeSecretCombination : void
- addAttempt() : void
- writeAttempts() : void
+ writeResult() : void
}
class ResumeView{
+ interact() : void
}
class AttemptView{
- game : Game
+ writeln(int attempts) : void
+ interact(SecretCombination secretCombination) : void
+{static} writeColors(Attempt addAttempt) : void
}
class SecretCombinationView{
- secretCombination : SecretCombination
+ writeln() : void
+ getSecretCombination() : SecretCombination
- writeColors() : void
}
View *- -> GameView
View ..> ResumeView
GameView o- -> AttemptView
GameView *- -> SecretCombinationView
}

namespace models{
Enum Color{
RED
BLUE
YELLOW
ORANGE
PINK
GREEN
+ toChar() : char
+ {static} valueOf(char character) : Color
+ {static} isValidColor(char character) : boolean
}
class Game{
- attemptList : List<Attempt>
+ addAttempt : void
+ getNumOfAttempts : int
+ getAttemptListSize : int
+ isFinished : boolean
+ isWinner : boolean
+ isLooser : boolean
+ resetAttemptList : void
}
Game o- ->"0-10" Attempt
Attempt *- -> ProposedCombination
Attempt *- -> SecretCombination
Combination <|-down- ProposedCombination
Combination <|-down- SecretCombination
Combination *- ->"4" Color
}

namespace utils{
views.console.View ..> IO
views.console.GameView ..> IO
views.console.SecretCombinationView ..> IO
views.console.AttemptView ..> IO
views.console.ResumeView ..> YesNoDialog

}
@enduml

PlantUML version 1.2020.20(Sat Nov 21 11:02:45 CET 2020)
(GPL source distribution)
Java Runtime: OpenJDK Runtime Environment
JVM: OpenJDK 64-Bit Server VM
Default Encoding: Cp1252
Language: es
Country: ES
--></g></svg>