<?xml version="1.0" encoding="UTF-8" standalone="no"?><svg xmlns="http://www.w3.org/2000/svg" xmlns:xlink="http://www.w3.org/1999/xlink" contentScriptType="application/ecmascript" contentStyleType="text/css" height="507.2px" preserveAspectRatio="none" style="width:1429px;height:507px;" version="1.1" viewBox="0 0 1429 507" width="1429.6px" zoomAndPan="magnify"><defs><filter height="300%" id="f1mw3fp5ayjhot" width="300%" x="-1" y="-1"><feGaussianBlur result="blurOut" stdDeviation="1.6"/><feColorMatrix in="blurOut" result="blurOut2" type="matrix" values="0 0 0 0 0 0 0 0 0 0 0 0 0 0 0 0 0 0 .4 0"/><feOffset dx="3.2" dy="3.2" in="blurOut2" result="blurOut3"/><feBlend in="SourceGraphic" in2="blurOut3" mode="normal"/></filter></defs><g><!--MD5=[a60570e4b426f702ccbb0d459e3b9417]
cluster models--><polygon fill="#FFFFFF" filter="url(#f1mw3fp5ayjhot)" points="1064.8,63.2,1110.4,63.2,1116,82.0875,1416,82.0875,1416,328.8,1064.8,328.8,1064.8,63.2" style="stroke:#000000;stroke-width:1.2000000000000002;"/><line style="stroke:#000000;stroke-width:1.2000000000000002;" x1="1064.8" x2="1116" y1="82.0875" y2="82.0875"/><text fill="#000000" font-family="sans-serif" font-size="11.2" font-weight="bold" lengthAdjust="spacing" textLength="40.8" x="1068" y="76.4266">models</text><!--MD5=[e2a75efa8a0f57c2afae8bf75386f79c]
cluster views--><polygon fill="#FFFFFF" filter="url(#f1mw3fp5ayjhot)" points="489.6,149.6,527.2,149.6,532.8,168.4875,561.6,168.4875,561.6,229.6,489.6,229.6,489.6,149.6" style="stroke:#000000;stroke-width:1.2000000000000002;"/><line style="stroke:#000000;stroke-width:1.2000000000000002;" x1="489.6" x2="532.8" y1="168.4875" y2="168.4875"/><text fill="#000000" font-family="sans-serif" font-size="11.2" font-weight="bold" lengthAdjust="spacing" textLength="32.8" x="492.8" y="162.8266">views</text><!--MD5=[f4e70ef68289585296b9045165e58692]
cluster controllers--><polygon fill="#FFFFFF" filter="url(#f1mw3fp5ayjhot)" points="598.4,149.6,664.8,149.6,670.4,168.4875,1045.6,168.4875,1045.6,328.8,598.4,328.8,598.4,149.6" style="stroke:#000000;stroke-width:1.2000000000000002;"/><line style="stroke:#000000;stroke-width:1.2000000000000002;" x1="598.4" x2="670.4" y1="168.4875" y2="168.4875"/><text fill="#000000" font-family="sans-serif" font-size="11.2" font-weight="bold" lengthAdjust="spacing" textLength="61.6" x="601.6" y="162.8266">controllers</text><!--MD5=[3d2289c64ab922d4a1148c2b2950c1a6]
cluster views.console--><polygon fill="#FFFFFF" filter="url(#f1mw3fp5ayjhot)" points="12.8,248.8,98.4,248.8,104,267.6875,452.8,267.6875,452.8,501.6,12.8,501.6,12.8,248.8" style="stroke:#000000;stroke-width:1.2000000000000002;"/><line style="stroke:#000000;stroke-width:1.2000000000000002;" x1="12.8" x2="104" y1="267.6875" y2="267.6875"/><text fill="#000000" font-family="sans-serif" font-size="11.2" font-weight="bold" lengthAdjust="spacing" textLength="80.8" x="16" y="262.0266">views.console</text><!--MD5=[5c7f87173935b24fa84626a0ac4e4222]
cluster views.graphic--><polygon fill="#FFFFFF" filter="url(#f1mw3fp5ayjhot)" points="472,248.8,555.2,248.8,560.8,267.6875,579.2,267.6875,579.2,328.8,472,328.8,472,248.8" style="stroke:#000000;stroke-width:1.2000000000000002;"/><line style="stroke:#000000;stroke-width:1.2000000000000002;" x1="472" x2="560.8" y1="267.6875" y2="267.6875"/><text fill="#000000" font-family="sans-serif" font-size="11.2" font-weight="bold" lengthAdjust="spacing" textLength="78.4" x="475.2" y="262.0266">views.graphic</text><!--MD5=[37e617bd1aa65de636adcd07c62c0e60]
class models.Logic--><rect fill="#FEFECE" filter="url(#f1mw3fp5ayjhot)" height="38.4" id="models.Logic" style="stroke:#A80036;stroke-width:1.2000000000000002;" width="49.6" x="1077.6" y="92"/><ellipse cx="1089.6" cy="104.8" fill="#ADD1B2" rx="8.8" ry="8.8" style="stroke:#A80036;stroke-width:0.8;"/><path d="M1091.2,102 Q1091.3625,101.6 1091.55,101.4 Q1091.7375,101.2 1091.95,101.2 Q1092.325,101.2 1092.5625,101.425 Q1092.8,101.65 1092.8,102.175 L1092.8,103.425 Q1092.8,103.95 1092.575,104.175 Q1092.35,104.4 1092,104.4 Q1091.6875,104.4 1091.4875,104.2625 Q1091.2875,104.125 1091.2,103.7625 Q1091.1625,103.5125 1091.025,103.375 Q1090.775,103.1125 1090.325,102.9625 Q1089.875,102.8 1089.425,102.8 Q1088.8625,102.8 1088.3875,103.025 Q1087.925,103.25 1087.5625,103.75 Q1087.2,104.25 1087.2,104.9375 L1087.2,105.675 Q1087.2,106.5 1087.875,107.05 Q1088.55,107.6 1089.75,107.6 Q1090.4625,107.6 1090.9625,107.4375 Q1091.25,107.35 1091.575,107.0625 Q1091.7875,106.9 1091.9,106.85 Q1092.0125,106.8 1092.15,106.8 Q1092.4125,106.8 1092.6,107.0125 Q1092.8,107.2125 1092.8,107.5 Q1092.8,107.775 1092.525,108.1 Q1092.125,108.575 1091.4875,108.8375 Q1090.65,109.2 1089.625,109.2 Q1088.425,109.2 1087.4625,108.725 Q1086.6875,108.35 1086.1375,107.5375 Q1085.6,106.725 1085.6,105.7625 L1085.6,104.8875 Q1085.6,103.8875 1086.075,103.0125 Q1086.5625,102.1375 1087.4,101.675 Q1088.25,101.2 1089.2,101.2 Q1089.775,101.2 1090.275,101.4 Q1090.775,101.6 1091.2,102 Z " fill="#000000"/><text fill="#000000" font-family="sans-serif" font-size="9.6" lengthAdjust="spacing" textLength="24" x="1100.8" y="108.7281">Logic</text><line style="stroke:#A80036;stroke-width:1.2000000000000002;" x1="1078.4" x2="1126.4" y1="117.6" y2="117.6"/><line style="stroke:#A80036;stroke-width:1.2000000000000002;" x1="1078.4" x2="1126.4" y1="124" y2="124"/><!--MD5=[54d08704be622b91252e030e0f93b574]
class models.Attempt--><rect codeLine="21" fill="#FEFECE" filter="url(#f1mw3fp5ayjhot)" height="38.4" id="models.Attempt" style="stroke:#A80036;stroke-width:1.2000000000000002;" width="58.4" x="1155.6" y="92"/><ellipse cx="1167.6" cy="104.8" fill="#ADD1B2" rx="8.8" ry="8.8" style="stroke:#A80036;stroke-width:0.8;"/><path d="M1169.2,102 Q1169.3625,101.6 1169.55,101.4 Q1169.7375,101.2 1169.95,101.2 Q1170.325,101.2 1170.5625,101.425 Q1170.8,101.65 1170.8,102.175 L1170.8,103.425 Q1170.8,103.95 1170.575,104.175 Q1170.35,104.4 1170,104.4 Q1169.6875,104.4 1169.4875,104.2625 Q1169.2875,104.125 1169.2,103.7625 Q1169.1625,103.5125 1169.025,103.375 Q1168.775,103.1125 1168.325,102.9625 Q1167.875,102.8 1167.425,102.8 Q1166.8625,102.8 1166.3875,103.025 Q1165.925,103.25 1165.5625,103.75 Q1165.2,104.25 1165.2,104.9375 L1165.2,105.675 Q1165.2,106.5 1165.875,107.05 Q1166.55,107.6 1167.75,107.6 Q1168.4625,107.6 1168.9625,107.4375 Q1169.25,107.35 1169.575,107.0625 Q1169.7875,106.9 1169.9,106.85 Q1170.0125,106.8 1170.15,106.8 Q1170.4125,106.8 1170.6,107.0125 Q1170.8,107.2125 1170.8,107.5 Q1170.8,107.775 1170.525,108.1 Q1170.125,108.575 1169.4875,108.8375 Q1168.65,109.2 1167.625,109.2 Q1166.425,109.2 1165.4625,108.725 Q1164.6875,108.35 1164.1375,107.5375 Q1163.6,106.725 1163.6,105.7625 L1163.6,104.8875 Q1163.6,103.8875 1164.075,103.0125 Q1164.5625,102.1375 1165.4,101.675 Q1166.25,101.2 1167.2,101.2 Q1167.775,101.2 1168.275,101.4 Q1168.775,101.6 1169.2,102 Z " fill="#000000"/><text fill="#000000" font-family="sans-serif" font-size="9.6" lengthAdjust="spacing" textLength="32.8" x="1178.8" y="108.7281">Attempt</text><line style="stroke:#A80036;stroke-width:1.2000000000000002;" x1="1156.4" x2="1213.2" y1="117.6" y2="117.6"/><line style="stroke:#A80036;stroke-width:1.2000000000000002;" x1="1156.4" x2="1213.2" y1="124" y2="124"/><!--MD5=[58499357d4445bcc3ecc978ad55497c9]
class models.Color--><rect codeLine="22" fill="#FEFECE" filter="url(#f1mw3fp5ayjhot)" height="38.4" id="models.Color" style="stroke:#A80036;stroke-width:1.2000000000000002;" width="49.6" x="1242.4" y="92"/><ellipse cx="1254.4" cy="104.8" fill="#ADD1B2" rx="8.8" ry="8.8" style="stroke:#A80036;stroke-width:0.8;"/><path d="M1256,102 Q1256.1625,101.6 1256.35,101.4 Q1256.5375,101.2 1256.75,101.2 Q1257.125,101.2 1257.3625,101.425 Q1257.6,101.65 1257.6,102.175 L1257.6,103.425 Q1257.6,103.95 1257.375,104.175 Q1257.15,104.4 1256.8,104.4 Q1256.4875,104.4 1256.2875,104.2625 Q1256.0875,104.125 1256,103.7625 Q1255.9625,103.5125 1255.825,103.375 Q1255.575,103.1125 1255.125,102.9625 Q1254.675,102.8 1254.225,102.8 Q1253.6625,102.8 1253.1875,103.025 Q1252.725,103.25 1252.3625,103.75 Q1252,104.25 1252,104.9375 L1252,105.675 Q1252,106.5 1252.675,107.05 Q1253.35,107.6 1254.55,107.6 Q1255.2625,107.6 1255.7625,107.4375 Q1256.05,107.35 1256.375,107.0625 Q1256.5875,106.9 1256.7,106.85 Q1256.8125,106.8 1256.95,106.8 Q1257.2125,106.8 1257.4,107.0125 Q1257.6,107.2125 1257.6,107.5 Q1257.6,107.775 1257.325,108.1 Q1256.925,108.575 1256.2875,108.8375 Q1255.45,109.2 1254.425,109.2 Q1253.225,109.2 1252.2625,108.725 Q1251.4875,108.35 1250.9375,107.5375 Q1250.4,106.725 1250.4,105.7625 L1250.4,104.8875 Q1250.4,103.8875 1250.875,103.0125 Q1251.3625,102.1375 1252.2,101.675 Q1253.05,101.2 1254,101.2 Q1254.575,101.2 1255.075,101.4 Q1255.575,101.6 1256,102 Z " fill="#000000"/><text fill="#000000" font-family="sans-serif" font-size="9.6" lengthAdjust="spacing" textLength="24" x="1265.6" y="108.7281">Color</text><line style="stroke:#A80036;stroke-width:1.2000000000000002;" x1="1243.2" x2="1291.2" y1="117.6" y2="117.6"/><line style="stroke:#A80036;stroke-width:1.2000000000000002;" x1="1243.2" x2="1291.2" y1="124" y2="124"/><!--MD5=[3ab7dea9c5f32da8266d9170b1b41dc7]
class models.Combination--><rect codeLine="23" fill="#FEFECE" filter="url(#f1mw3fp5ayjhot)" height="38.4" id="models.Combination" style="stroke:#A80036;stroke-width:1.2000000000000002;" width="82.4" x="1320.4" y="92"/><ellipse cx="1332.4" cy="104.8" fill="#ADD1B2" rx="8.8" ry="8.8" style="stroke:#A80036;stroke-width:0.8;"/><path d="M1334,102 Q1334.1625,101.6 1334.35,101.4 Q1334.5375,101.2 1334.75,101.2 Q1335.125,101.2 1335.3625,101.425 Q1335.6,101.65 1335.6,102.175 L1335.6,103.425 Q1335.6,103.95 1335.375,104.175 Q1335.15,104.4 1334.8,104.4 Q1334.4875,104.4 1334.2875,104.2625 Q1334.0875,104.125 1334,103.7625 Q1333.9625,103.5125 1333.825,103.375 Q1333.575,103.1125 1333.125,102.9625 Q1332.675,102.8 1332.225,102.8 Q1331.6625,102.8 1331.1875,103.025 Q1330.725,103.25 1330.3625,103.75 Q1330,104.25 1330,104.9375 L1330,105.675 Q1330,106.5 1330.675,107.05 Q1331.35,107.6 1332.55,107.6 Q1333.2625,107.6 1333.7625,107.4375 Q1334.05,107.35 1334.375,107.0625 Q1334.5875,106.9 1334.7,106.85 Q1334.8125,106.8 1334.95,106.8 Q1335.2125,106.8 1335.4,107.0125 Q1335.6,107.2125 1335.6,107.5 Q1335.6,107.775 1335.325,108.1 Q1334.925,108.575 1334.2875,108.8375 Q1333.45,109.2 1332.425,109.2 Q1331.225,109.2 1330.2625,108.725 Q1329.4875,108.35 1328.9375,107.5375 Q1328.4,106.725 1328.4,105.7625 L1328.4,104.8875 Q1328.4,103.8875 1328.875,103.0125 Q1329.3625,102.1375 1330.2,101.675 Q1331.05,101.2 1332,101.2 Q1332.575,101.2 1333.075,101.4 Q1333.575,101.6 1334,102 Z " fill="#000000"/><text fill="#000000" font-family="sans-serif" font-size="9.6" lengthAdjust="spacing" textLength="56.8" x="1343.6" y="108.7281">Combination</text><line style="stroke:#A80036;stroke-width:1.2000000000000002;" x1="1321.2" x2="1402" y1="117.6" y2="117.6"/><line style="stroke:#A80036;stroke-width:1.2000000000000002;" x1="1321.2" x2="1402" y1="124" y2="124"/><!--MD5=[1ea5cf3e691bb3552ec8d5f9a56af156]
class models.Game--><rect codeLine="24" fill="#FEFECE" filter="url(#f1mw3fp5ayjhot)" height="38.4" id="models.Game" style="stroke:#A80036;stroke-width:1.2000000000000002;" width="52.8" x="1101.6" y="178.4"/><ellipse cx="1113.6" cy="191.2" fill="#ADD1B2" rx="8.8" ry="8.8" style="stroke:#A80036;stroke-width:0.8;"/><path d="M1115.2,188.4 Q1115.3625,188 1115.55,187.8 Q1115.7375,187.6 1115.95,187.6 Q1116.325,187.6 1116.5625,187.825 Q1116.8,188.05 1116.8,188.575 L1116.8,189.825 Q1116.8,190.35 1116.575,190.575 Q1116.35,190.8 1116,190.8 Q1115.6875,190.8 1115.4875,190.6625 Q1115.2875,190.525 1115.2,190.1625 Q1115.1625,189.9125 1115.025,189.775 Q1114.775,189.5125 1114.325,189.3625 Q1113.875,189.2 1113.425,189.2 Q1112.8625,189.2 1112.3875,189.425 Q1111.925,189.65 1111.5625,190.15 Q1111.2,190.65 1111.2,191.3375 L1111.2,192.075 Q1111.2,192.9 1111.875,193.45 Q1112.55,194 1113.75,194 Q1114.4625,194 1114.9625,193.8375 Q1115.25,193.75 1115.575,193.4625 Q1115.7875,193.3 1115.9,193.25 Q1116.0125,193.2 1116.15,193.2 Q1116.4125,193.2 1116.6,193.4125 Q1116.8,193.6125 1116.8,193.9 Q1116.8,194.175 1116.525,194.5 Q1116.125,194.975 1115.4875,195.2375 Q1114.65,195.6 1113.625,195.6 Q1112.425,195.6 1111.4625,195.125 Q1110.6875,194.75 1110.1375,193.9375 Q1109.6,193.125 1109.6,192.1625 L1109.6,191.2875 Q1109.6,190.2875 1110.075,189.4125 Q1110.5625,188.5375 1111.4,188.075 Q1112.25,187.6 1113.2,187.6 Q1113.775,187.6 1114.275,187.8 Q1114.775,188 1115.2,188.4 Z " fill="#000000"/><text fill="#000000" font-family="sans-serif" font-size="9.6" lengthAdjust="spacing" textLength="27.2" x="1124.8" y="195.1281">Game</text><line style="stroke:#A80036;stroke-width:1.2000000000000002;" x1="1102.4" x2="1153.6" y1="204" y2="204"/><line style="stroke:#A80036;stroke-width:1.2000000000000002;" x1="1102.4" x2="1153.6" y1="210.4" y2="210.4"/><!--MD5=[ca1d71ce86c277371091067808338545]
class models.Message--><rect codeLine="25" fill="#FEFECE" filter="url(#f1mw3fp5ayjhot)" height="38.4" id="models.Message" style="stroke:#A80036;stroke-width:1.2000000000000002;" width="66.4" x="1182.8" y="178.4"/><ellipse cx="1194.8" cy="191.2" fill="#ADD1B2" rx="8.8" ry="8.8" style="stroke:#A80036;stroke-width:0.8;"/><path d="M1196.4,188.4 Q1196.5625,188 1196.75,187.8 Q1196.9375,187.6 1197.15,187.6 Q1197.525,187.6 1197.7625,187.825 Q1198,188.05 1198,188.575 L1198,189.825 Q1198,190.35 1197.775,190.575 Q1197.55,190.8 1197.2,190.8 Q1196.8875,190.8 1196.6875,190.6625 Q1196.4875,190.525 1196.4,190.1625 Q1196.3625,189.9125 1196.225,189.775 Q1195.975,189.5125 1195.525,189.3625 Q1195.075,189.2 1194.625,189.2 Q1194.0625,189.2 1193.5875,189.425 Q1193.125,189.65 1192.7625,190.15 Q1192.4,190.65 1192.4,191.3375 L1192.4,192.075 Q1192.4,192.9 1193.075,193.45 Q1193.75,194 1194.95,194 Q1195.6625,194 1196.1625,193.8375 Q1196.45,193.75 1196.775,193.4625 Q1196.9875,193.3 1197.1,193.25 Q1197.2125,193.2 1197.35,193.2 Q1197.6125,193.2 1197.8,193.4125 Q1198,193.6125 1198,193.9 Q1198,194.175 1197.725,194.5 Q1197.325,194.975 1196.6875,195.2375 Q1195.85,195.6 1194.825,195.6 Q1193.625,195.6 1192.6625,195.125 Q1191.8875,194.75 1191.3375,193.9375 Q1190.8,193.125 1190.8,192.1625 L1190.8,191.2875 Q1190.8,190.2875 1191.275,189.4125 Q1191.7625,188.5375 1192.6,188.075 Q1193.45,187.6 1194.4,187.6 Q1194.975,187.6 1195.475,187.8 Q1195.975,188 1196.4,188.4 Z " fill="#000000"/><text fill="#000000" font-family="sans-serif" font-size="9.6" lengthAdjust="spacing" textLength="40.8" x="1206" y="195.1281">Message</text><line style="stroke:#A80036;stroke-width:1.2000000000000002;" x1="1183.6" x2="1248.4" y1="204" y2="204"/><line style="stroke:#A80036;stroke-width:1.2000000000000002;" x1="1183.6" x2="1248.4" y1="210.4" y2="210.4"/><!--MD5=[9d437554863e80ad96398a79d9b4582d]
class models.ProposedCombination--><rect codeLine="26" fill="#FEFECE" filter="url(#f1mw3fp5ayjhot)" height="38.4" id="models.ProposedCombination" style="stroke:#A80036;stroke-width:1.2000000000000002;" width="125.6" x="1277.2" y="178.4"/><ellipse cx="1289.2" cy="191.2" fill="#ADD1B2" rx="8.8" ry="8.8" style="stroke:#A80036;stroke-width:0.8;"/><path d="M1290.8,188.4 Q1290.9625,188 1291.15,187.8 Q1291.3375,187.6 1291.55,187.6 Q1291.925,187.6 1292.1625,187.825 Q1292.4,188.05 1292.4,188.575 L1292.4,189.825 Q1292.4,190.35 1292.175,190.575 Q1291.95,190.8 1291.6,190.8 Q1291.2875,190.8 1291.0875,190.6625 Q1290.8875,190.525 1290.8,190.1625 Q1290.7625,189.9125 1290.625,189.775 Q1290.375,189.5125 1289.925,189.3625 Q1289.475,189.2 1289.025,189.2 Q1288.4625,189.2 1287.9875,189.425 Q1287.525,189.65 1287.1625,190.15 Q1286.8,190.65 1286.8,191.3375 L1286.8,192.075 Q1286.8,192.9 1287.475,193.45 Q1288.15,194 1289.35,194 Q1290.0625,194 1290.5625,193.8375 Q1290.85,193.75 1291.175,193.4625 Q1291.3875,193.3 1291.5,193.25 Q1291.6125,193.2 1291.75,193.2 Q1292.0125,193.2 1292.2,193.4125 Q1292.4,193.6125 1292.4,193.9 Q1292.4,194.175 1292.125,194.5 Q1291.725,194.975 1291.0875,195.2375 Q1290.25,195.6 1289.225,195.6 Q1288.025,195.6 1287.0625,195.125 Q1286.2875,194.75 1285.7375,193.9375 Q1285.2,193.125 1285.2,192.1625 L1285.2,191.2875 Q1285.2,190.2875 1285.675,189.4125 Q1286.1625,188.5375 1287,188.075 Q1287.85,187.6 1288.8,187.6 Q1289.375,187.6 1289.875,187.8 Q1290.375,188 1290.8,188.4 Z " fill="#000000"/><text fill="#000000" font-family="sans-serif" font-size="9.6" lengthAdjust="spacing" textLength="100" x="1300.4" y="195.1281">ProposedCombination</text><line style="stroke:#A80036;stroke-width:1.2000000000000002;" x1="1278" x2="1402" y1="204" y2="204"/><line style="stroke:#A80036;stroke-width:1.2000000000000002;" x1="1278" x2="1402" y1="210.4" y2="210.4"/><!--MD5=[b89ed330bc8394929f0ad94fa56293db]
class models.SecretCombination--><rect codeLine="27" fill="#FEFECE" filter="url(#f1mw3fp5ayjhot)" height="38.4" id="models.SecretCombination" style="stroke:#A80036;stroke-width:1.2000000000000002;" width="110.4" x="1077.6" y="277.6"/><ellipse cx="1089.6" cy="290.4" fill="#ADD1B2" rx="8.8" ry="8.8" style="stroke:#A80036;stroke-width:0.8;"/><path d="M1091.2,287.6 Q1091.3625,287.2 1091.55,287 Q1091.7375,286.8 1091.95,286.8 Q1092.325,286.8 1092.5625,287.025 Q1092.8,287.25 1092.8,287.775 L1092.8,289.025 Q1092.8,289.55 1092.575,289.775 Q1092.35,290 1092,290 Q1091.6875,290 1091.4875,289.8625 Q1091.2875,289.725 1091.2,289.3625 Q1091.1625,289.1125 1091.025,288.975 Q1090.775,288.7125 1090.325,288.5625 Q1089.875,288.4 1089.425,288.4 Q1088.8625,288.4 1088.3875,288.625 Q1087.925,288.85 1087.5625,289.35 Q1087.2,289.85 1087.2,290.5375 L1087.2,291.275 Q1087.2,292.1 1087.875,292.65 Q1088.55,293.2 1089.75,293.2 Q1090.4625,293.2 1090.9625,293.0375 Q1091.25,292.95 1091.575,292.6625 Q1091.7875,292.5 1091.9,292.45 Q1092.0125,292.4 1092.15,292.4 Q1092.4125,292.4 1092.6,292.6125 Q1092.8,292.8125 1092.8,293.1 Q1092.8,293.375 1092.525,293.7 Q1092.125,294.175 1091.4875,294.4375 Q1090.65,294.8 1089.625,294.8 Q1088.425,294.8 1087.4625,294.325 Q1086.6875,293.95 1086.1375,293.1375 Q1085.6,292.325 1085.6,291.3625 L1085.6,290.4875 Q1085.6,289.4875 1086.075,288.6125 Q1086.5625,287.7375 1087.4,287.275 Q1088.25,286.8 1089.2,286.8 Q1089.775,286.8 1090.275,287 Q1090.775,287.2 1091.2,287.6 Z " fill="#000000"/><text fill="#000000" font-family="sans-serif" font-size="9.6" lengthAdjust="spacing" textLength="84.8" x="1100.8" y="294.3281">SecretCombination</text><line style="stroke:#A80036;stroke-width:1.2000000000000002;" x1="1078.4" x2="1187.2" y1="303.2" y2="303.2"/><line style="stroke:#A80036;stroke-width:1.2000000000000002;" x1="1078.4" x2="1187.2" y1="309.6" y2="309.6"/><!--MD5=[2be34c3508109d2174a868e624d0f343]
class models.State--><rect codeLine="28" fill="#FEFECE" filter="url(#f1mw3fp5ayjhot)" height="38.4" id="models.State" style="stroke:#A80036;stroke-width:1.2000000000000002;" width="48" x="1216" y="277.6"/><ellipse cx="1228" cy="290.4" fill="#ADD1B2" rx="8.8" ry="8.8" style="stroke:#A80036;stroke-width:0.8;"/><path d="M1229.6,287.6 Q1229.7625,287.2 1229.95,287 Q1230.1375,286.8 1230.35,286.8 Q1230.725,286.8 1230.9625,287.025 Q1231.2,287.25 1231.2,287.775 L1231.2,289.025 Q1231.2,289.55 1230.975,289.775 Q1230.75,290 1230.4,290 Q1230.0875,290 1229.8875,289.8625 Q1229.6875,289.725 1229.6,289.3625 Q1229.5625,289.1125 1229.425,288.975 Q1229.175,288.7125 1228.725,288.5625 Q1228.275,288.4 1227.825,288.4 Q1227.2625,288.4 1226.7875,288.625 Q1226.325,288.85 1225.9625,289.35 Q1225.6,289.85 1225.6,290.5375 L1225.6,291.275 Q1225.6,292.1 1226.275,292.65 Q1226.95,293.2 1228.15,293.2 Q1228.8625,293.2 1229.3625,293.0375 Q1229.65,292.95 1229.975,292.6625 Q1230.1875,292.5 1230.3,292.45 Q1230.4125,292.4 1230.55,292.4 Q1230.8125,292.4 1231,292.6125 Q1231.2,292.8125 1231.2,293.1 Q1231.2,293.375 1230.925,293.7 Q1230.525,294.175 1229.8875,294.4375 Q1229.05,294.8 1228.025,294.8 Q1226.825,294.8 1225.8625,294.325 Q1225.0875,293.95 1224.5375,293.1375 Q1224,292.325 1224,291.3625 L1224,290.4875 Q1224,289.4875 1224.475,288.6125 Q1224.9625,287.7375 1225.8,287.275 Q1226.65,286.8 1227.6,286.8 Q1228.175,286.8 1228.675,287 Q1229.175,287.2 1229.6,287.6 Z " fill="#000000"/><text fill="#000000" font-family="sans-serif" font-size="9.6" lengthAdjust="spacing" textLength="22.4" x="1239.2" y="294.3281">State</text><line style="stroke:#A80036;stroke-width:1.2000000000000002;" x1="1216.8" x2="1263.2" y1="303.2" y2="303.2"/><line style="stroke:#A80036;stroke-width:1.2000000000000002;" x1="1216.8" x2="1263.2" y1="309.6" y2="309.6"/><!--MD5=[286cce848db7c45db382960b079695c1]
class models.StateValue--><rect codeLine="29" fill="#FEFECE" filter="url(#f1mw3fp5ayjhot)" height="38.4" id="models.StateValue" style="stroke:#A80036;stroke-width:1.2000000000000002;" width="72.8" x="1292.4" y="277.6"/><ellipse cx="1304.4" cy="290.4" fill="#ADD1B2" rx="8.8" ry="8.8" style="stroke:#A80036;stroke-width:0.8;"/><path d="M1306,287.6 Q1306.1625,287.2 1306.35,287 Q1306.5375,286.8 1306.75,286.8 Q1307.125,286.8 1307.3625,287.025 Q1307.6,287.25 1307.6,287.775 L1307.6,289.025 Q1307.6,289.55 1307.375,289.775 Q1307.15,290 1306.8,290 Q1306.4875,290 1306.2875,289.8625 Q1306.0875,289.725 1306,289.3625 Q1305.9625,289.1125 1305.825,288.975 Q1305.575,288.7125 1305.125,288.5625 Q1304.675,288.4 1304.225,288.4 Q1303.6625,288.4 1303.1875,288.625 Q1302.725,288.85 1302.3625,289.35 Q1302,289.85 1302,290.5375 L1302,291.275 Q1302,292.1 1302.675,292.65 Q1303.35,293.2 1304.55,293.2 Q1305.2625,293.2 1305.7625,293.0375 Q1306.05,292.95 1306.375,292.6625 Q1306.5875,292.5 1306.7,292.45 Q1306.8125,292.4 1306.95,292.4 Q1307.2125,292.4 1307.4,292.6125 Q1307.6,292.8125 1307.6,293.1 Q1307.6,293.375 1307.325,293.7 Q1306.925,294.175 1306.2875,294.4375 Q1305.45,294.8 1304.425,294.8 Q1303.225,294.8 1302.2625,294.325 Q1301.4875,293.95 1300.9375,293.1375 Q1300.4,292.325 1300.4,291.3625 L1300.4,290.4875 Q1300.4,289.4875 1300.875,288.6125 Q1301.3625,287.7375 1302.2,287.275 Q1303.05,286.8 1304,286.8 Q1304.575,286.8 1305.075,287 Q1305.575,287.2 1306,287.6 Z " fill="#000000"/><text fill="#000000" font-family="sans-serif" font-size="9.6" lengthAdjust="spacing" textLength="47.2" x="1315.6" y="294.3281">StateValue</text><line style="stroke:#A80036;stroke-width:1.2000000000000002;" x1="1293.2" x2="1364.4" y1="303.2" y2="303.2"/><line style="stroke:#A80036;stroke-width:1.2000000000000002;" x1="1293.2" x2="1364.4" y1="309.6" y2="309.6"/><!--MD5=[c6440925ac5e46774a6c6ce790d315b9]
class views.View--><rect fill="#FEFECE" filter="url(#f1mw3fp5ayjhot)" height="38.4" id="views.View" style="stroke:#A80036;stroke-width:1.2000000000000002;" width="46.4" x="502.4" y="178.4"/><ellipse cx="514.4" cy="191.2" fill="#ADD1B2" rx="8.8" ry="8.8" style="stroke:#A80036;stroke-width:0.8;"/><path d="M516,188.4 Q516.1625,188 516.35,187.8 Q516.5375,187.6 516.75,187.6 Q517.125,187.6 517.3625,187.825 Q517.6,188.05 517.6,188.575 L517.6,189.825 Q517.6,190.35 517.375,190.575 Q517.15,190.8 516.8,190.8 Q516.4875,190.8 516.2875,190.6625 Q516.0875,190.525 516,190.1625 Q515.9625,189.9125 515.825,189.775 Q515.575,189.5125 515.125,189.3625 Q514.675,189.2 514.225,189.2 Q513.6625,189.2 513.1875,189.425 Q512.725,189.65 512.3625,190.15 Q512,190.65 512,191.3375 L512,192.075 Q512,192.9 512.675,193.45 Q513.35,194 514.55,194 Q515.2625,194 515.7625,193.8375 Q516.05,193.75 516.375,193.4625 Q516.5875,193.3 516.7,193.25 Q516.8125,193.2 516.95,193.2 Q517.2125,193.2 517.4,193.4125 Q517.6,193.6125 517.6,193.9 Q517.6,194.175 517.325,194.5 Q516.925,194.975 516.2875,195.2375 Q515.45,195.6 514.425,195.6 Q513.225,195.6 512.2625,195.125 Q511.4875,194.75 510.9375,193.9375 Q510.4,193.125 510.4,192.1625 L510.4,191.2875 Q510.4,190.2875 510.875,189.4125 Q511.3625,188.5375 512.2,188.075 Q513.05,187.6 514,187.6 Q514.575,187.6 515.075,187.8 Q515.575,188 516,188.4 Z " fill="#000000"/><text fill="#000000" font-family="sans-serif" font-size="9.6" lengthAdjust="spacing" textLength="20.8" x="525.6" y="195.1281">View</text><line style="stroke:#A80036;stroke-width:1.2000000000000002;" x1="503.2" x2="548" y1="204" y2="204"/><line style="stroke:#A80036;stroke-width:1.2000000000000002;" x1="503.2" x2="548" y1="210.4" y2="210.4"/><!--MD5=[d538e9e3e9ace5a9c5dcbfba7654f5f1]
class controllers.Controller--><rect fill="#FEFECE" filter="url(#f1mw3fp5ayjhot)" height="38.4" id="controllers.Controller" style="stroke:#A80036;stroke-width:1.2000000000000002;" width="68.8" x="861.6" y="178.4"/><ellipse cx="873.6" cy="191.2" fill="#ADD1B2" rx="8.8" ry="8.8" style="stroke:#A80036;stroke-width:0.8;"/><path d="M875.2,188.4 Q875.3625,188 875.55,187.8 Q875.7375,187.6 875.95,187.6 Q876.325,187.6 876.5625,187.825 Q876.8,188.05 876.8,188.575 L876.8,189.825 Q876.8,190.35 876.575,190.575 Q876.35,190.8 876,190.8 Q875.6875,190.8 875.4875,190.6625 Q875.2875,190.525 875.2,190.1625 Q875.1625,189.9125 875.025,189.775 Q874.775,189.5125 874.325,189.3625 Q873.875,189.2 873.425,189.2 Q872.8625,189.2 872.3875,189.425 Q871.925,189.65 871.5625,190.15 Q871.2,190.65 871.2,191.3375 L871.2,192.075 Q871.2,192.9 871.875,193.45 Q872.55,194 873.75,194 Q874.4625,194 874.9625,193.8375 Q875.25,193.75 875.575,193.4625 Q875.7875,193.3 875.9,193.25 Q876.0125,193.2 876.15,193.2 Q876.4125,193.2 876.6,193.4125 Q876.8,193.6125 876.8,193.9 Q876.8,194.175 876.525,194.5 Q876.125,194.975 875.4875,195.2375 Q874.65,195.6 873.625,195.6 Q872.425,195.6 871.4625,195.125 Q870.6875,194.75 870.1375,193.9375 Q869.6,193.125 869.6,192.1625 L869.6,191.2875 Q869.6,190.2875 870.075,189.4125 Q870.5625,188.5375 871.4,188.075 Q872.25,187.6 873.2,187.6 Q873.775,187.6 874.275,187.8 Q874.775,188 875.2,188.4 Z " fill="#000000"/><text fill="#000000" font-family="sans-serif" font-size="9.6" lengthAdjust="spacing" textLength="43.2" x="884.8" y="195.1281">Controller</text><line style="stroke:#A80036;stroke-width:1.2000000000000002;" x1="862.4" x2="929.6" y1="204" y2="204"/><line style="stroke:#A80036;stroke-width:1.2000000000000002;" x1="862.4" x2="929.6" y1="210.4" y2="210.4"/><!--MD5=[1ca606ade29448d66bff39c3ca169238]
class controllers.StartController--><rect fill="#FEFECE" filter="url(#f1mw3fp5ayjhot)" height="38.4" id="controllers.StartController" style="stroke:#A80036;stroke-width:1.2000000000000002;" width="88.8" x="611.6" y="277.6"/><ellipse cx="623.6" cy="290.4" fill="#ADD1B2" rx="8.8" ry="8.8" style="stroke:#A80036;stroke-width:0.8;"/><path d="M625.2,287.6 Q625.3625,287.2 625.55,287 Q625.7375,286.8 625.95,286.8 Q626.325,286.8 626.5625,287.025 Q626.8,287.25 626.8,287.775 L626.8,289.025 Q626.8,289.55 626.575,289.775 Q626.35,290 626,290 Q625.6875,290 625.4875,289.8625 Q625.2875,289.725 625.2,289.3625 Q625.1625,289.1125 625.025,288.975 Q624.775,288.7125 624.325,288.5625 Q623.875,288.4 623.425,288.4 Q622.8625,288.4 622.3875,288.625 Q621.925,288.85 621.5625,289.35 Q621.2,289.85 621.2,290.5375 L621.2,291.275 Q621.2,292.1 621.875,292.65 Q622.55,293.2 623.75,293.2 Q624.4625,293.2 624.9625,293.0375 Q625.25,292.95 625.575,292.6625 Q625.7875,292.5 625.9,292.45 Q626.0125,292.4 626.15,292.4 Q626.4125,292.4 626.6,292.6125 Q626.8,292.8125 626.8,293.1 Q626.8,293.375 626.525,293.7 Q626.125,294.175 625.4875,294.4375 Q624.65,294.8 623.625,294.8 Q622.425,294.8 621.4625,294.325 Q620.6875,293.95 620.1375,293.1375 Q619.6,292.325 619.6,291.3625 L619.6,290.4875 Q619.6,289.4875 620.075,288.6125 Q620.5625,287.7375 621.4,287.275 Q622.25,286.8 623.2,286.8 Q623.775,286.8 624.275,287 Q624.775,287.2 625.2,287.6 Z " fill="#000000"/><text fill="#000000" font-family="sans-serif" font-size="9.6" lengthAdjust="spacing" textLength="63.2" x="634.8" y="294.3281">StartController</text><line style="stroke:#A80036;stroke-width:1.2000000000000002;" x1="612.4" x2="699.6" y1="303.2" y2="303.2"/><line style="stroke:#A80036;stroke-width:1.2000000000000002;" x1="612.4" x2="699.6" y1="309.6" y2="309.6"/><!--MD5=[dccc9676c8acb62178aa8b8fb25d2069]
class controllers.ProposedCombinationController--><rect fill="#FEFECE" filter="url(#f1mw3fp5ayjhot)" height="38.4" id="controllers.ProposedCombinationController" style="stroke:#A80036;stroke-width:1.2000000000000002;" width="168.8" x="728.4" y="277.6"/><ellipse cx="740.4" cy="290.4" fill="#ADD1B2" rx="8.8" ry="8.8" style="stroke:#A80036;stroke-width:0.8;"/><path d="M742,287.6 Q742.1625,287.2 742.35,287 Q742.5375,286.8 742.75,286.8 Q743.125,286.8 743.3625,287.025 Q743.6,287.25 743.6,287.775 L743.6,289.025 Q743.6,289.55 743.375,289.775 Q743.15,290 742.8,290 Q742.4875,290 742.2875,289.8625 Q742.0875,289.725 742,289.3625 Q741.9625,289.1125 741.825,288.975 Q741.575,288.7125 741.125,288.5625 Q740.675,288.4 740.225,288.4 Q739.6625,288.4 739.1875,288.625 Q738.725,288.85 738.3625,289.35 Q738,289.85 738,290.5375 L738,291.275 Q738,292.1 738.675,292.65 Q739.35,293.2 740.55,293.2 Q741.2625,293.2 741.7625,293.0375 Q742.05,292.95 742.375,292.6625 Q742.5875,292.5 742.7,292.45 Q742.8125,292.4 742.95,292.4 Q743.2125,292.4 743.4,292.6125 Q743.6,292.8125 743.6,293.1 Q743.6,293.375 743.325,293.7 Q742.925,294.175 742.2875,294.4375 Q741.45,294.8 740.425,294.8 Q739.225,294.8 738.2625,294.325 Q737.4875,293.95 736.9375,293.1375 Q736.4,292.325 736.4,291.3625 L736.4,290.4875 Q736.4,289.4875 736.875,288.6125 Q737.3625,287.7375 738.2,287.275 Q739.05,286.8 740,286.8 Q740.575,286.8 741.075,287 Q741.575,287.2 742,287.6 Z " fill="#000000"/><text fill="#000000" font-family="sans-serif" font-size="9.6" lengthAdjust="spacing" textLength="143.2" x="751.6" y="294.3281">ProposedCombinationController</text><line style="stroke:#A80036;stroke-width:1.2000000000000002;" x1="729.2" x2="896.4" y1="303.2" y2="303.2"/><line style="stroke:#A80036;stroke-width:1.2000000000000002;" x1="729.2" x2="896.4" y1="309.6" y2="309.6"/><!--MD5=[12e816d8ac45337d932400bf96e6eca7]
class controllers.ResumeController--><rect fill="#FEFECE" filter="url(#f1mw3fp5ayjhot)" height="38.4" id="controllers.ResumeController" style="stroke:#A80036;stroke-width:1.2000000000000002;" width="107.2" x="925.6" y="277.6"/><ellipse cx="937.6" cy="290.4" fill="#ADD1B2" rx="8.8" ry="8.8" style="stroke:#A80036;stroke-width:0.8;"/><path d="M939.2,287.6 Q939.3625,287.2 939.55,287 Q939.7375,286.8 939.95,286.8 Q940.325,286.8 940.5625,287.025 Q940.8,287.25 940.8,287.775 L940.8,289.025 Q940.8,289.55 940.575,289.775 Q940.35,290 940,290 Q939.6875,290 939.4875,289.8625 Q939.2875,289.725 939.2,289.3625 Q939.1625,289.1125 939.025,288.975 Q938.775,288.7125 938.325,288.5625 Q937.875,288.4 937.425,288.4 Q936.8625,288.4 936.3875,288.625 Q935.925,288.85 935.5625,289.35 Q935.2,289.85 935.2,290.5375 L935.2,291.275 Q935.2,292.1 935.875,292.65 Q936.55,293.2 937.75,293.2 Q938.4625,293.2 938.9625,293.0375 Q939.25,292.95 939.575,292.6625 Q939.7875,292.5 939.9,292.45 Q940.0125,292.4 940.15,292.4 Q940.4125,292.4 940.6,292.6125 Q940.8,292.8125 940.8,293.1 Q940.8,293.375 940.525,293.7 Q940.125,294.175 939.4875,294.4375 Q938.65,294.8 937.625,294.8 Q936.425,294.8 935.4625,294.325 Q934.6875,293.95 934.1375,293.1375 Q933.6,292.325 933.6,291.3625 L933.6,290.4875 Q933.6,289.4875 934.075,288.6125 Q934.5625,287.7375 935.4,287.275 Q936.25,286.8 937.2,286.8 Q937.775,286.8 938.275,287 Q938.775,287.2 939.2,287.6 Z " fill="#000000"/><text fill="#000000" font-family="sans-serif" font-size="9.6" lengthAdjust="spacing" textLength="81.6" x="948.8" y="294.3281">ResumeController</text><line style="stroke:#A80036;stroke-width:1.2000000000000002;" x1="926.4" x2="1032" y1="303.2" y2="303.2"/><line style="stroke:#A80036;stroke-width:1.2000000000000002;" x1="926.4" x2="1032" y1="309.6" y2="309.6"/><!--MD5=[9c3ecf5778a50c7c983b390ce6fdde9e]
class views.console.ConsoleView--><rect fill="#FEFECE" filter="url(#f1mw3fp5ayjhot)" height="38.4" id="views.console.ConsoleView" style="stroke:#A80036;stroke-width:1.2000000000000002;" width="84" x="256.4" y="277.6"/><ellipse cx="268.4" cy="290.4" fill="#ADD1B2" rx="8.8" ry="8.8" style="stroke:#A80036;stroke-width:0.8;"/><path d="M270,287.6 Q270.1625,287.2 270.35,287 Q270.5375,286.8 270.75,286.8 Q271.125,286.8 271.3625,287.025 Q271.6,287.25 271.6,287.775 L271.6,289.025 Q271.6,289.55 271.375,289.775 Q271.15,290 270.8,290 Q270.4875,290 270.2875,289.8625 Q270.0875,289.725 270,289.3625 Q269.9625,289.1125 269.825,288.975 Q269.575,288.7125 269.125,288.5625 Q268.675,288.4 268.225,288.4 Q267.6625,288.4 267.1875,288.625 Q266.725,288.85 266.3625,289.35 Q266,289.85 266,290.5375 L266,291.275 Q266,292.1 266.675,292.65 Q267.35,293.2 268.55,293.2 Q269.2625,293.2 269.7625,293.0375 Q270.05,292.95 270.375,292.6625 Q270.5875,292.5 270.7,292.45 Q270.8125,292.4 270.95,292.4 Q271.2125,292.4 271.4,292.6125 Q271.6,292.8125 271.6,293.1 Q271.6,293.375 271.325,293.7 Q270.925,294.175 270.2875,294.4375 Q269.45,294.8 268.425,294.8 Q267.225,294.8 266.2625,294.325 Q265.4875,293.95 264.9375,293.1375 Q264.4,292.325 264.4,291.3625 L264.4,290.4875 Q264.4,289.4875 264.875,288.6125 Q265.3625,287.7375 266.2,287.275 Q267.05,286.8 268,286.8 Q268.575,286.8 269.075,287 Q269.575,287.2 270,287.6 Z " fill="#000000"/><text fill="#000000" font-family="sans-serif" font-size="9.6" lengthAdjust="spacing" textLength="58.4" x="279.6" y="294.3281">ConsoleView</text><line style="stroke:#A80036;stroke-width:1.2000000000000002;" x1="257.2" x2="339.6" y1="303.2" y2="303.2"/><line style="stroke:#A80036;stroke-width:1.2000000000000002;" x1="257.2" x2="339.6" y1="309.6" y2="309.6"/><!--MD5=[9f4dc69b0b544243f394be7db57a7790]
class views.console.GameView--><rect fill="#FEFECE" filter="url(#f1mw3fp5ayjhot)" height="38.4" id="views.console.GameView" style="stroke:#A80036;stroke-width:1.2000000000000002;" width="73.6" x="212" y="364"/><ellipse cx="224" cy="376.8" fill="#ADD1B2" rx="8.8" ry="8.8" style="stroke:#A80036;stroke-width:0.8;"/><path d="M225.6,374 Q225.7625,373.6 225.95,373.4 Q226.1375,373.2 226.35,373.2 Q226.725,373.2 226.9625,373.425 Q227.2,373.65 227.2,374.175 L227.2,375.425 Q227.2,375.95 226.975,376.175 Q226.75,376.4 226.4,376.4 Q226.0875,376.4 225.8875,376.2625 Q225.6875,376.125 225.6,375.7625 Q225.5625,375.5125 225.425,375.375 Q225.175,375.1125 224.725,374.9625 Q224.275,374.8 223.825,374.8 Q223.2625,374.8 222.7875,375.025 Q222.325,375.25 221.9625,375.75 Q221.6,376.25 221.6,376.9375 L221.6,377.675 Q221.6,378.5 222.275,379.05 Q222.95,379.6 224.15,379.6 Q224.8625,379.6 225.3625,379.4375 Q225.65,379.35 225.975,379.0625 Q226.1875,378.9 226.3,378.85 Q226.4125,378.8 226.55,378.8 Q226.8125,378.8 227,379.0125 Q227.2,379.2125 227.2,379.5 Q227.2,379.775 226.925,380.1 Q226.525,380.575 225.8875,380.8375 Q225.05,381.2 224.025,381.2 Q222.825,381.2 221.8625,380.725 Q221.0875,380.35 220.5375,379.5375 Q220,378.725 220,377.7625 L220,376.8875 Q220,375.8875 220.475,375.0125 Q220.9625,374.1375 221.8,373.675 Q222.65,373.2 223.6,373.2 Q224.175,373.2 224.675,373.4 Q225.175,373.6 225.6,374 Z " fill="#000000"/><text fill="#000000" font-family="sans-serif" font-size="9.6" lengthAdjust="spacing" textLength="48" x="235.2" y="380.7281">GameView</text><line style="stroke:#A80036;stroke-width:1.2000000000000002;" x1="212.8" x2="284.8" y1="389.6" y2="389.6"/><line style="stroke:#A80036;stroke-width:1.2000000000000002;" x1="212.8" x2="284.8" y1="396" y2="396"/><!--MD5=[937bc8db9504e57eafe08f070c3ff59c]
class views.console.AttemptView--><rect fill="#FEFECE" filter="url(#f1mw3fp5ayjhot)" height="38.4" id="views.console.AttemptView" style="stroke:#A80036;stroke-width:1.2000000000000002;" width="79.2" x="26" y="450.4"/><ellipse cx="38" cy="463.2" fill="#ADD1B2" rx="8.8" ry="8.8" style="stroke:#A80036;stroke-width:0.8;"/><path d="M39.6,460.4 Q39.7625,460 39.95,459.8 Q40.1375,459.6 40.35,459.6 Q40.725,459.6 40.9625,459.825 Q41.2,460.05 41.2,460.575 L41.2,461.825 Q41.2,462.35 40.975,462.575 Q40.75,462.8 40.4,462.8 Q40.0875,462.8 39.8875,462.6625 Q39.6875,462.525 39.6,462.1625 Q39.5625,461.9125 39.425,461.775 Q39.175,461.5125 38.725,461.3625 Q38.275,461.2 37.825,461.2 Q37.2625,461.2 36.7875,461.425 Q36.325,461.65 35.9625,462.15 Q35.6,462.65 35.6,463.3375 L35.6,464.075 Q35.6,464.9 36.275,465.45 Q36.95,466 38.15,466 Q38.8625,466 39.3625,465.8375 Q39.65,465.75 39.975,465.4625 Q40.1875,465.3 40.3,465.25 Q40.4125,465.2 40.55,465.2 Q40.8125,465.2 41,465.4125 Q41.2,465.6125 41.2,465.9 Q41.2,466.175 40.925,466.5 Q40.525,466.975 39.8875,467.2375 Q39.05,467.6 38.025,467.6 Q36.825,467.6 35.8625,467.125 Q35.0875,466.75 34.5375,465.9375 Q34,465.125 34,464.1625 L34,463.2875 Q34,462.2875 34.475,461.4125 Q34.9625,460.5375 35.8,460.075 Q36.65,459.6 37.6,459.6 Q38.175,459.6 38.675,459.8 Q39.175,460 39.6,460.4 Z " fill="#000000"/><text fill="#000000" font-family="sans-serif" font-size="9.6" lengthAdjust="spacing" textLength="53.6" x="49.2" y="467.1281">AttemptView</text><line style="stroke:#A80036;stroke-width:1.2000000000000002;" x1="26.8" x2="104.4" y1="476" y2="476"/><line style="stroke:#A80036;stroke-width:1.2000000000000002;" x1="26.8" x2="104.4" y1="482.4" y2="482.4"/><!--MD5=[52f795c826f81af7fbdfc10d6f76edf3]
class views.console.SecretCombinationView--><rect fill="#FEFECE" filter="url(#f1mw3fp5ayjhot)" height="38.4" id="views.console.SecretCombinationView" style="stroke:#A80036;stroke-width:1.2000000000000002;" width="131.2" x="133.6" y="450.4"/><ellipse cx="145.6" cy="463.2" fill="#ADD1B2" rx="8.8" ry="8.8" style="stroke:#A80036;stroke-width:0.8;"/><path d="M147.2,460.4 Q147.3625,460 147.55,459.8 Q147.7375,459.6 147.95,459.6 Q148.325,459.6 148.5625,459.825 Q148.8,460.05 148.8,460.575 L148.8,461.825 Q148.8,462.35 148.575,462.575 Q148.35,462.8 148,462.8 Q147.6875,462.8 147.4875,462.6625 Q147.2875,462.525 147.2,462.1625 Q147.1625,461.9125 147.025,461.775 Q146.775,461.5125 146.325,461.3625 Q145.875,461.2 145.425,461.2 Q144.8625,461.2 144.3875,461.425 Q143.925,461.65 143.5625,462.15 Q143.2,462.65 143.2,463.3375 L143.2,464.075 Q143.2,464.9 143.875,465.45 Q144.55,466 145.75,466 Q146.4625,466 146.9625,465.8375 Q147.25,465.75 147.575,465.4625 Q147.7875,465.3 147.9,465.25 Q148.0125,465.2 148.15,465.2 Q148.4125,465.2 148.6,465.4125 Q148.8,465.6125 148.8,465.9 Q148.8,466.175 148.525,466.5 Q148.125,466.975 147.4875,467.2375 Q146.65,467.6 145.625,467.6 Q144.425,467.6 143.4625,467.125 Q142.6875,466.75 142.1375,465.9375 Q141.6,465.125 141.6,464.1625 L141.6,463.2875 Q141.6,462.2875 142.075,461.4125 Q142.5625,460.5375 143.4,460.075 Q144.25,459.6 145.2,459.6 Q145.775,459.6 146.275,459.8 Q146.775,460 147.2,460.4 Z " fill="#000000"/><text fill="#000000" font-family="sans-serif" font-size="9.6" lengthAdjust="spacing" textLength="105.6" x="156.8" y="467.1281">SecretCombinationView</text><line style="stroke:#A80036;stroke-width:1.2000000000000002;" x1="134.4" x2="264" y1="476" y2="476"/><line style="stroke:#A80036;stroke-width:1.2000000000000002;" x1="134.4" x2="264" y1="482.4" y2="482.4"/><!--MD5=[83bd2f70f652e01548aaf5aa946c23ed]
class views.console.ProposedCombinationView--><rect fill="#FEFECE" filter="url(#f1mw3fp5ayjhot)" height="38.4" id="views.console.ProposedCombinationView" style="stroke:#A80036;stroke-width:1.2000000000000002;" width="146.4" x="293.2" y="450.4"/><ellipse cx="305.2" cy="463.2" fill="#ADD1B2" rx="8.8" ry="8.8" style="stroke:#A80036;stroke-width:0.8;"/><path d="M306.8,460.4 Q306.9625,460 307.15,459.8 Q307.3375,459.6 307.55,459.6 Q307.925,459.6 308.1625,459.825 Q308.4,460.05 308.4,460.575 L308.4,461.825 Q308.4,462.35 308.175,462.575 Q307.95,462.8 307.6,462.8 Q307.2875,462.8 307.0875,462.6625 Q306.8875,462.525 306.8,462.1625 Q306.7625,461.9125 306.625,461.775 Q306.375,461.5125 305.925,461.3625 Q305.475,461.2 305.025,461.2 Q304.4625,461.2 303.9875,461.425 Q303.525,461.65 303.1625,462.15 Q302.8,462.65 302.8,463.3375 L302.8,464.075 Q302.8,464.9 303.475,465.45 Q304.15,466 305.35,466 Q306.0625,466 306.5625,465.8375 Q306.85,465.75 307.175,465.4625 Q307.3875,465.3 307.5,465.25 Q307.6125,465.2 307.75,465.2 Q308.0125,465.2 308.2,465.4125 Q308.4,465.6125 308.4,465.9 Q308.4,466.175 308.125,466.5 Q307.725,466.975 307.0875,467.2375 Q306.25,467.6 305.225,467.6 Q304.025,467.6 303.0625,467.125 Q302.2875,466.75 301.7375,465.9375 Q301.2,465.125 301.2,464.1625 L301.2,463.2875 Q301.2,462.2875 301.675,461.4125 Q302.1625,460.5375 303,460.075 Q303.85,459.6 304.8,459.6 Q305.375,459.6 305.875,459.8 Q306.375,460 306.8,460.4 Z " fill="#000000"/><text fill="#000000" font-family="sans-serif" font-size="9.6" lengthAdjust="spacing" textLength="120.8" x="316.4" y="467.1281">ProposedCombinationView</text><line style="stroke:#A80036;stroke-width:1.2000000000000002;" x1="294" x2="438.8" y1="476" y2="476"/><line style="stroke:#A80036;stroke-width:1.2000000000000002;" x1="294" x2="438.8" y1="482.4" y2="482.4"/><!--MD5=[c55a3bd85bdbe43241961c75a4f4f8c6]
class views.graphic.GraphicView--><rect codeLine="34" fill="#FEFECE" filter="url(#f1mw3fp5ayjhot)" height="38.4" id="views.graphic.GraphicView" style="stroke:#A80036;stroke-width:1.2000000000000002;" width="80.8" x="485.2" y="277.6"/><ellipse cx="497.2" cy="290.4" fill="#ADD1B2" rx="8.8" ry="8.8" style="stroke:#A80036;stroke-width:0.8;"/><path d="M498.8,287.6 Q498.9625,287.2 499.15,287 Q499.3375,286.8 499.55,286.8 Q499.925,286.8 500.1625,287.025 Q500.4,287.25 500.4,287.775 L500.4,289.025 Q500.4,289.55 500.175,289.775 Q499.95,290 499.6,290 Q499.2875,290 499.0875,289.8625 Q498.8875,289.725 498.8,289.3625 Q498.7625,289.1125 498.625,288.975 Q498.375,288.7125 497.925,288.5625 Q497.475,288.4 497.025,288.4 Q496.4625,288.4 495.9875,288.625 Q495.525,288.85 495.1625,289.35 Q494.8,289.85 494.8,290.5375 L494.8,291.275 Q494.8,292.1 495.475,292.65 Q496.15,293.2 497.35,293.2 Q498.0625,293.2 498.5625,293.0375 Q498.85,292.95 499.175,292.6625 Q499.3875,292.5 499.5,292.45 Q499.6125,292.4 499.75,292.4 Q500.0125,292.4 500.2,292.6125 Q500.4,292.8125 500.4,293.1 Q500.4,293.375 500.125,293.7 Q499.725,294.175 499.0875,294.4375 Q498.25,294.8 497.225,294.8 Q496.025,294.8 495.0625,294.325 Q494.2875,293.95 493.7375,293.1375 Q493.2,292.325 493.2,291.3625 L493.2,290.4875 Q493.2,289.4875 493.675,288.6125 Q494.1625,287.7375 495,287.275 Q495.85,286.8 496.8,286.8 Q497.375,286.8 497.875,287 Q498.375,287.2 498.8,287.6 Z " fill="#000000"/><text fill="#000000" font-family="sans-serif" font-size="9.6" lengthAdjust="spacing" textLength="55.2" x="508.4" y="294.3281">GraphicView</text><line style="stroke:#A80036;stroke-width:1.2000000000000002;" x1="486" x2="565.2" y1="303.2" y2="303.2"/><line style="stroke:#A80036;stroke-width:1.2000000000000002;" x1="486" x2="565.2" y1="309.6" y2="309.6"/><!--MD5=[7283a9eed84464550b6d5ebf39c68b05]
class Mastermind--><rect codeLine="1" fill="#FEFECE" filter="url(#f1mw3fp5ayjhot)" height="38.4" id="Mastermind" style="stroke:#A80036;stroke-width:1.2000000000000002;" width="76.8" x="873.6" y="5.6"/><ellipse cx="885.6" cy="18.4" fill="#A9DCDF" rx="8.8" ry="8.8" style="stroke:#A80036;stroke-width:0.8;"/><path d="M887,19.6 L884.3625,19.6 L884.0125,20.4 L884.0125,20.4 L884.3875,20.4 L884.8,20.9 L884.8,21.2 L884.8,21.5 L884.3875,22 L884.0125,22 L882.5,22 L882.0125,22 L881.6,21.5 L881.6,21.2 L881.6,20.9 L882.0125,20.4 L882.5,20.4 L884.35,15.6 L883.65,15.6 L882.8125,15.6 L882.4,15.1 L882.4,14.8 L882.4,14.5 L882.8125,14 L883.65,14 L886.5875,14 L888.7375,20.4 L889.1875,20.4 L889.1875,20.4 L889.6,20.9 L889.6,21.2 L889.6,21.5 L889.1875,22 L888.7375,22 L887.225,22 L886.8125,22 L886.4,21.5 L886.4,21.2 L886.4,20.9 L886.8125,20.4 L887.225,20.4 L887.225,20.4 L887,19.6 Z M886.5625,18 L885.6,15.1375 L884.775,18 L886.5625,18 Z " fill="#000000"/><text fill="#000000" font-family="sans-serif" font-size="9.6" font-style="italic" lengthAdjust="spacing" textLength="51.2" x="896.8" y="22.3281">Mastermind</text><line style="stroke:#A80036;stroke-width:1.2000000000000002;" x1="874.4" x2="949.6" y1="31.2" y2="31.2"/><line style="stroke:#A80036;stroke-width:1.2000000000000002;" x1="874.4" x2="949.6" y1="37.6" y2="37.6"/><!--MD5=[b42ceb2c5584a967df5f7acfe803d0f5]
class ConsoleMastermind--><rect codeLine="2" fill="#FEFECE" filter="url(#f1mw3fp5ayjhot)" height="38.4" id="ConsoleMastermind" style="stroke:#A80036;stroke-width:1.2000000000000002;" width="115.2" x="631.2" y="92"/><ellipse cx="643.2" cy="104.8" fill="#ADD1B2" rx="8.8" ry="8.8" style="stroke:#A80036;stroke-width:0.8;"/><path d="M644.8,102 Q644.9625,101.6 645.15,101.4 Q645.3375,101.2 645.55,101.2 Q645.925,101.2 646.1625,101.425 Q646.4,101.65 646.4,102.175 L646.4,103.425 Q646.4,103.95 646.175,104.175 Q645.95,104.4 645.6,104.4 Q645.2875,104.4 645.0875,104.2625 Q644.8875,104.125 644.8,103.7625 Q644.7625,103.5125 644.625,103.375 Q644.375,103.1125 643.925,102.9625 Q643.475,102.8 643.025,102.8 Q642.4625,102.8 641.9875,103.025 Q641.525,103.25 641.1625,103.75 Q640.8,104.25 640.8,104.9375 L640.8,105.675 Q640.8,106.5 641.475,107.05 Q642.15,107.6 643.35,107.6 Q644.0625,107.6 644.5625,107.4375 Q644.85,107.35 645.175,107.0625 Q645.3875,106.9 645.5,106.85 Q645.6125,106.8 645.75,106.8 Q646.0125,106.8 646.2,107.0125 Q646.4,107.2125 646.4,107.5 Q646.4,107.775 646.125,108.1 Q645.725,108.575 645.0875,108.8375 Q644.25,109.2 643.225,109.2 Q642.025,109.2 641.0625,108.725 Q640.2875,108.35 639.7375,107.5375 Q639.2,106.725 639.2,105.7625 L639.2,104.8875 Q639.2,103.8875 639.675,103.0125 Q640.1625,102.1375 641,101.675 Q641.85,101.2 642.8,101.2 Q643.375,101.2 643.875,101.4 Q644.375,101.6 644.8,102 Z " fill="#000000"/><text fill="#000000" font-family="sans-serif" font-size="9.6" lengthAdjust="spacing" textLength="89.6" x="654.4" y="108.7281">ConsoleMastermind</text><line style="stroke:#A80036;stroke-width:1.2000000000000002;" x1="632" x2="745.6" y1="117.6" y2="117.6"/><line style="stroke:#A80036;stroke-width:1.2000000000000002;" x1="632" x2="745.6" y1="124" y2="124"/><!--MD5=[3dbb96204e83d62728e291fc10d13f13]
class GraphicMastermind--><rect codeLine="3" fill="#FEFECE" filter="url(#f1mw3fp5ayjhot)" height="38.4" id="GraphicMastermind" style="stroke:#A80036;stroke-width:1.2000000000000002;" width="112" x="856" y="92"/><ellipse cx="868" cy="104.8" fill="#ADD1B2" rx="8.8" ry="8.8" style="stroke:#A80036;stroke-width:0.8;"/><path d="M869.6,102 Q869.7625,101.6 869.95,101.4 Q870.1375,101.2 870.35,101.2 Q870.725,101.2 870.9625,101.425 Q871.2,101.65 871.2,102.175 L871.2,103.425 Q871.2,103.95 870.975,104.175 Q870.75,104.4 870.4,104.4 Q870.0875,104.4 869.8875,104.2625 Q869.6875,104.125 869.6,103.7625 Q869.5625,103.5125 869.425,103.375 Q869.175,103.1125 868.725,102.9625 Q868.275,102.8 867.825,102.8 Q867.2625,102.8 866.7875,103.025 Q866.325,103.25 865.9625,103.75 Q865.6,104.25 865.6,104.9375 L865.6,105.675 Q865.6,106.5 866.275,107.05 Q866.95,107.6 868.15,107.6 Q868.8625,107.6 869.3625,107.4375 Q869.65,107.35 869.975,107.0625 Q870.1875,106.9 870.3,106.85 Q870.4125,106.8 870.55,106.8 Q870.8125,106.8 871,107.0125 Q871.2,107.2125 871.2,107.5 Q871.2,107.775 870.925,108.1 Q870.525,108.575 869.8875,108.8375 Q869.05,109.2 868.025,109.2 Q866.825,109.2 865.8625,108.725 Q865.0875,108.35 864.5375,107.5375 Q864,106.725 864,105.7625 L864,104.8875 Q864,103.8875 864.475,103.0125 Q864.9625,102.1375 865.8,101.675 Q866.65,101.2 867.6,101.2 Q868.175,101.2 868.675,101.4 Q869.175,101.6 869.6,102 Z " fill="#000000"/><text fill="#000000" font-family="sans-serif" font-size="9.6" lengthAdjust="spacing" textLength="86.4" x="879.2" y="108.7281">GraphicMastermind</text><line style="stroke:#A80036;stroke-width:1.2000000000000002;" x1="856.8" x2="967.2" y1="117.6" y2="117.6"/><line style="stroke:#A80036;stroke-width:1.2000000000000002;" x1="856.8" x2="967.2" y1="124" y2="124"/><!--MD5=[7afbafdb125ce8bbfb96ccbb9aad70ab]
link Mastermind to models.Logic--><path codeLine="5" d="M959.5235,46.6273 C959.5235,46.6273 975.264,53.624 982.4,56.8 C1011.224,69.624 1043.912,84.232 1067.88,94.952 " fill="none" id="Mastermind-models.Logic" style="stroke:#A80036;stroke-width:0.8;"/><polygon fill="#A80036" points="1077.592,99.296,1072.3279,93.4335,1073.9411,97.6617,1069.7129,99.2749,1077.592,99.296" style="stroke:#A80036;stroke-width:0.8;"/><line style="stroke:#A80036;stroke-width:0.8;" x1="1073.9411" x2="1068.096" y1="97.6617" y2="95.044"/><polygon fill="#A80036" points="950.744,42.744,953.8394,47.6121,959.5235,46.6273,956.4282,41.7591,950.744,42.744" style="stroke:#A80036;stroke-width:0.8;"/><!--MD5=[00344b25554080b223ed48afc3efe932]
reverse link Mastermind to ConsoleMastermind--><path codeLine="6" d="M858.368,45.976 C821.504,59.984 772.96,78.424 737.264,91.984 " fill="none" id="Mastermind-backto-ConsoleMastermind" style="stroke:#A80036;stroke-width:0.8;"/><polygon fill="none" points="856.432,40.72,873.376,40.272,860.408,51.192,856.432,40.72" style="stroke:#A80036;stroke-width:0.8;"/><!--MD5=[9e99639dc9984f28887e4b96848d5fa3]
reverse link Mastermind to GraphicMastermind--><path codeLine="7" d="M912,60.016 C912,70.864 912,82.432 912,91.744 " fill="none" id="Mastermind-backto-GraphicMastermind" style="stroke:#A80036;stroke-width:0.8;"/><polygon fill="none" points="906.4,60,912,44,917.6,60,906.4,60" style="stroke:#A80036;stroke-width:0.8;"/><!--MD5=[6fb66bd5674986e9f90d7ac44c0441cb]
link ConsoleMastermind to views.View--><path codeLine="8" d="M622.078,132.4492 C622.078,132.4492 605.584,139.432 598.4,143.2 C583.384,151.088 568.072,161.864 555.392,171.688 " fill="none" id="ConsoleMastermind-views.View" style="stroke:#A80036;stroke-width:0.8;"/><polygon fill="#A80036" points="547.072,178.288,554.7008,176.3178,550.2049,175.801,550.7216,171.3051,547.072,178.288" style="stroke:#A80036;stroke-width:0.8;"/><line style="stroke:#A80036;stroke-width:0.8;" x1="550.2049" x2="555.216" y1="175.801" y2="171.828"/><polygon fill="#A80036" points="631.04,129.008,625.4119,127.7413,622.078,132.4492,627.7061,133.716,631.04,129.008" style="stroke:#A80036;stroke-width:0.8;"/><!--MD5=[5d8ba35bff6dceea699964200a179cf2]
link models.Logic to controllers.Controller--><path codeLine="9" d="M1077.504,122.232 C1041.912,136.856 976.168,163.864 934.336,181.048 " fill="none" id="models.Logic-to-controllers.Controller" style="stroke:#A80036;stroke-width:0.8;"/><polygon fill="#A80036" points="930.616,182.576,938.4918,182.8021,934.3164,181.057,936.0615,176.8815,930.616,182.576" style="stroke:#A80036;stroke-width:0.8;"/><!--MD5=[c1be248eb4343df0434ba6b8152624c0]
reverse link views.View to views.console.ConsoleView--><path codeLine="10" d="M487.512,214.76 C446.84,232.232 382.576,259.84 340.448,277.936 " fill="none" id="views.View-backto-views.console.ConsoleView" style="stroke:#A80036;stroke-width:0.8;"/><polygon fill="none" points="485.44,209.56,502.352,208.384,489.864,219.848,485.44,209.56" style="stroke:#A80036;stroke-width:0.8;"/><!--MD5=[661e0842df5a804e2e7e7e7a174d3192]
reverse link views.View to views.graphic.GraphicView--><path codeLine="11" d="M525.6,233.016 C525.6,248.008 525.6,264.944 525.6,277.48 " fill="none" id="views.View-backto-views.graphic.GraphicView" style="stroke:#A80036;stroke-width:0.8;"/><polygon fill="none" points="520,232.984,525.6,216.984,531.2,232.984,520,232.984" style="stroke:#A80036;stroke-width:0.8;"/><!--MD5=[8ed129eddd3efcd5d73b597830113c0a]
link views.console.ConsoleView to views.console.GameView--><path codeLine="13" d="M282.7864,324.2827 C282.7864,324.2827 270.536,345.248 264.992,354.72 " fill="none" id="views.console.ConsoleView-views.console.GameView" style="stroke:#A80036;stroke-width:0.8;"/><polygon fill="#A80036" points="259.712,363.744,266.1087,359.1438,261.731,360.291,260.5838,355.9133,259.712,363.744" style="stroke:#A80036;stroke-width:0.8;"/><line style="stroke:#A80036;stroke-width:0.8;" x1="261.731" x2="264.964" y1="360.291" y2="354.764"/><polygon fill="#A80036" points="287.64,316,282.4523,318.5235,282.7864,324.2827,287.9741,321.7592,287.64,316" style="stroke:#A80036;stroke-width:0.8;"/><!--MD5=[6e1613315990f2ca1f3a506a063b27d9]
link views.console.GameView to views.console.AttemptView--><path codeLine="14" d="M211.944,401.056 C182.224,414.816 140.36,434.192 109.016,448.704 " fill="none" id="views.console.GameView-to-views.console.AttemptView" style="stroke:#A80036;stroke-width:0.8;"/><polygon fill="#A80036" points="105.248,450.448,113.1262,450.3315,108.8788,448.7696,110.4408,444.5222,105.248,450.448" style="stroke:#A80036;stroke-width:0.8;"/><!--MD5=[dd513d09b716009f5ca464e3278bbb9d]
link views.console.GameView to views.console.SecretCombinationView--><path codeLine="15" d="M238.04,402.4 C230.488,415.312 220.344,432.656 212.32,446.376 " fill="none" id="views.console.GameView-to-views.console.SecretCombinationView" style="stroke:#A80036;stroke-width:0.8;"/><polygon fill="#A80036" points="210.112,450.144,216.5068,445.5411,212.1296,446.6901,210.9806,442.3129,210.112,450.144" style="stroke:#A80036;stroke-width:0.8;"/><!--MD5=[040893d00fbc899932dded4ee400621a]
link views.console.GameView to views.console.ProposedCombinationView--><path codeLine="16" d="M274.32,402.4 C292.904,415.8 318.096,433.968 337.432,447.912 " fill="none" id="views.console.GameView-to-views.console.ProposedCombinationView" style="stroke:#A80036;stroke-width:0.8;"/><polygon fill="#A80036" points="340.728,450.288,336.7629,443.4793,337.4847,447.9469,333.0171,448.6686,340.728,450.288" style="stroke:#A80036;stroke-width:0.8;"/><!--MD5=[6c9ab08b12a41e31cbd5f73fef1aa392]
link controllers.Controller to controllers.StartController--><path codeLine="17" d="M861.376,201.576 C823.416,206.208 761.624,217.2 714.4,242.4 C699.304,250.456 685.104,263.328 674.48,274.432 " fill="none" id="controllers.Controller-to-controllers.StartController" style="stroke:#A80036;stroke-width:0.8;stroke-dasharray:7.0,7.0;"/><polygon fill="#A80036" points="671.584,277.52,678.8425,274.455,674.3194,274.6015,674.1729,270.0784,671.584,277.52" style="stroke:#A80036;stroke-width:0.8;"/><!--MD5=[de02ae4f68f997fa97f484ce855199ea]
link controllers.Controller to controllers.ProposedCombinationController--><path codeLine="18" d="M880.152,216.984 C866.216,233.336 845.92,257.144 831.256,274.352 " fill="none" id="controllers.Controller-to-controllers.ProposedCombinationController" style="stroke:#A80036;stroke-width:0.8;stroke-dasharray:7.0,7.0;"/><polygon fill="#A80036" points="828.584,277.48,835.6856,274.0673,831.1749,274.4325,830.8097,269.9218,828.584,277.48" style="stroke:#A80036;stroke-width:0.8;"/><!--MD5=[5aa73dd6a52ab1c59f90cc0330839e8f]
link controllers.Controller to controllers.ResumeController--><path codeLine="19" d="M911.848,216.984 C925.784,233.336 946.08,257.144 960.744,274.352 " fill="none" id="controllers.Controller-to-controllers.ResumeController" style="stroke:#A80036;stroke-width:0.8;stroke-dasharray:7.0,7.0;"/><polygon fill="#A80036" points="963.416,277.48,961.1903,269.9218,960.8251,274.4325,956.3144,274.0673,963.416,277.48" style="stroke:#A80036;stroke-width:0.8;"/><!--MD5=[4a984a6942312f074bca993940bac6e7]
link models.Attempt to models.Color--><!--MD5=[cbba4dd482ccfc0e08c9e195ba132fa3]
link models.Color to models.Combination--><!--MD5=[0ba3de9b9f8b6b295f5a9393201e24a2]
link models.Attempt to models.Game--><!--MD5=[ad97d5bf35c8887fee9806a13e3be50a]
link models.Game to models.Message--><!--MD5=[092fbd0142fb861c3e9f2b335fc06525]
link models.Message to models.ProposedCombination--><!--MD5=[edc3d0228750d410110ee65407e59f37]
link models.Game to models.SecretCombination--><!--MD5=[93bf92a93f9e3ea32c5e879c73b7009f]
link models.SecretCombination to models.State--><!--MD5=[24e914e21fcaad857508f61d3d0ffd06]
link models.State to models.StateValue--><!--MD5=[b4bcd880efb55fc891d1da144559e73b]
@startuml
abstract class Mastermind
class ConsoleMastermind
class GraphicMastermind

Mastermind *- -> models.Logic
ConsoleMastermind -up-|> Mastermind
GraphicMastermind -up-|> Mastermind
ConsoleMastermind *- -> views.View
models.Logic - -> controllers.Controller
views.console.ConsoleView -up-|> views.View
views.graphic.GraphicView -up-|> views.View

views.console.ConsoleView *- -> views.console.GameView
views.console.GameView - -> views.console.AttemptView
views.console.GameView - -> views.console.SecretCombinationView
views.console.GameView - -> views.console.ProposedCombinationView
controllers.Controller ..> controllers.StartController
controllers.Controller ..> controllers.ProposedCombinationController
controllers.Controller ..> controllers.ResumeController
namespace models{
class Attempt{}
class Color{}
class Combination{}
class Game{}
class Message{}
class ProposedCombination{}
class SecretCombination{}
class State{}
class StateValue{}
}
namespace views{
namespace console{}
namespace graphic{
class GraphicView{}
}
}

@enduml

PlantUML version 1.2021.00(Sun Jan 10 11:25:05 CET 2021)
(GPL source distribution)
Java Runtime: OpenJDK Runtime Environment
JVM: OpenJDK 64-Bit Server VM
Default Encoding: Cp1252
Language: es
Country: ES
--></g></svg>